<?xml version="1.0" standalone="no"?>
<!DOCTYPE svg PUBLIC "-//W3C//DTD SVG 1.1//EN" "http://www.w3.org/Graphics/SVG/1.1/DTD/svg11.dtd">
<svg xmlns="http://www.w3.org/2000/svg">
<metadata>Generated by Fontastic.me</metadata>
<defs>
<font id="picons-v3" horiz-adv-x="512">
<font-face font-family="picons-v3" units-per-em="512" ascent="480" descent="-32"/>
<missing-glyph horiz-adv-x="512" />

<glyph glyph-name="01-forrst" unicode="&#97;" d="M450 37l-186 428c-1 4-5 7-9 7-4 0-8-3-9-7l-187-428c-1-3-1-7 1-10 2-2 5-4 8-4l166 0 0 91-44 31 7 10 37-26 0 73 42 0 0-48 39 20 5-12-44-22 0-35 71 35 6-11-77-39 0-67 165 0c3 0 7 2 8 5 2 2 3 6 1 9z"/>
<glyph glyph-name="02-dribbble" unicode="&#98;" d="M471 295c-3 14-7 28-13 42-6 13-12 26-20 38-8 11-18 22-28 32-10 10-21 20-32 27-12 8-25 15-38 21-14 6-28 10-42 13-14 3-30 4-45 4-15 0-30-1-44-4-15-3-29-7-42-13-13-6-26-13-38-21-12-7-23-17-33-27-10-10-19-21-27-32-8-12-15-25-20-38-6-14-10-28-13-42-3-15-5-30-5-45 0-15 2-30 5-44 3-15 7-29 13-42 5-13 12-26 20-38 8-12 17-23 27-33 10-10 21-19 33-27 12-8 25-15 38-20 13-6 27-10 42-13 14-3 29-5 44-5 15 0 31 2 45 5 14 3 28 7 42 13 13 5 26 12 38 20 11 8 22 17 32 27 10 10 20 21 28 33 8 12 14 25 20 38 6 13 10 27 13 42 3 14 4 29 4 44 0 15-1 30-4 45z m-28-43c-3 1-67 15-132 6-1 4-3 7-4 10-4 10-8 19-13 28 75 30 106 74 106 75 26-32 43-74 43-119z m-64 141c-1-1-28-42-99-69-33 60-68 107-71 111 14 3 29 5 44 5 48 0 92-18 126-47z m-171 41c0 0 0 0 0 0 0 0 0 0-1 0 1 0 1 0 1 0z m-35-12c2-4 37-51 70-109-91-25-170-24-175-24 12 59 52 108 105 133z m-109-172c0 2 0 4 0 6 3 0 97-2 195 27 5-10 10-21 15-32-2-1-5-1-7-2-103-33-155-125-155-125 0 0 0 0 0 0-30 33-48 78-48 126z m189-189c-45 0-88 16-120 43 2-2 4-3 4-3 0 0 36 79 149 118 0 0 1 1 1 1 27-70 38-128 40-144-22-10-47-15-74-15z m106 32c-2 12-12 67-37 136 62 9 115-7 119-9-9-53-39-98-82-127z"/>
<glyph glyph-name="03-twitter" unicode="&#99;" d="M486 372c-16-7-34-12-52-14 18 11 33 29 40 50-18-10-37-18-58-22-17 18-40 29-66 29-50 0-91-41-91-91 0-7 1-14 2-21-75 4-142 40-187 95-8-13-12-29-12-45 0-32 16-60 40-76-15 1-29 5-41 11 0 0 0 0 0-1 0-44 31-80 73-89-8-2-16-3-24-3-6 0-12 1-17 2 11-36 45-63 85-63-31-25-71-39-113-39-7 0-15 0-22 1 40-26 88-41 139-41 167 0 259 139 259 259 0 4 0 7-1 11 18 13 34 29 46 47z"/>
<glyph glyph-name="04-flickr" unicode="&#100;" d="M230 257c0-53-43-97-97-97-53 0-97 44-97 97 0 54 44 97 97 97 54 0 97-43 97-97z m243 0c0-53-43-97-97-97-53 0-97 44-97 97 0 54 44 97 97 97 54 0 97-43 97-97z"/>
<glyph glyph-name="05-twitter" unicode="&#101;" d="M368 132l-84 0c-59 0-69 26-69 50 0 12 1 31 2 55l139 0c21 0 61 8 61 46 0 39-18 64-43 64l-156 0c0 55-3 110-57 110-23 0-41-9-48-32-10-30-8-65-8-96 0-6 0-12 0-18 0-20 1-41 1-61 0-22 0-44 0-66 0-124 112-159 134-159 21 0 106-2 121-2 15 0 59 4 59 49 0 44-31 60-52 60z"/>
<glyph glyph-name="06-facebook" unicode="&#102;" d="M363 317l-69 0 0 45c0 17 12 21 20 21 7 0 48 0 48 0l0 74-67 0c-74 0-91-55-91-91l0-49-42 0 0-77 42 0c0-98 0-217 0-217l90 0c0 0 0 120 0 217l61 0z"/>
<glyph glyph-name="07-skype" unicode="&#103;" d="M463 200c3 14 4 29 4 45 0 116-94 210-210 210-12 0-24-1-36-3-19 12-41 19-65 19-67 0-122-55-122-122 0-23 6-44 17-62-3-14-4-28-4-42 0-117 94-211 210-211 13 0 26 1 38 4 18-9 37-15 58-15 68 0 122 55 122 122 0 20-4 38-12 55z m-98-56c-10-14-24-25-43-32-18-8-40-12-66-12-30 0-55 5-75 16-14 8-26 18-35 31-9 13-13 25-13 38 0 7 3 14 9 20 5 5 13 8 22 8 7 0 13-2 18-7 5-4 9-10 13-18 3-8 7-15 12-21 4-6 10-10 17-14 8-3 18-5 31-5 17 0 32 3 42 11 11 7 16 16 16 26 0 8-3 15-8 20-6 5-14 10-23 12-9 3-22 7-38 10-22 5-41 10-56 16-15 7-27 16-36 27-9 11-13 25-13 42 0 16 4 30 14 43 9 12 23 22 41 28 17 6 38 10 62 10 18 0 35-2 49-7 14-4 25-10 34-17 10-7 17-15 21-23 4-8 6-16 6-24 0-8-2-14-8-20-6-6-13-9-22-9-8 0-14 2-18 5-4 4-8 9-12 17-6 10-12 18-19 23-7 6-19 8-35 8-16 0-28-3-37-9-9-5-13-12-13-20 0-5 1-8 4-12 3-4 7-7 13-9 5-3 11-5 17-7 6-2 15-4 29-7 17-4 33-8 46-12 14-5 26-10 36-17 10-6 18-15 24-25 6-10 9-22 9-37 0-17-5-33-15-47z"/>
<glyph glyph-name="08-digg" unicode="&#104;" d="M103 384l0-59-67 0 0-135 110 0 0 194z m0-158l-23 0 0 62 23 0 0-62z m134 99l0-135 66 0 0-21-67 0 0-38 111 0 0 194z m66-98l-22 0 0 61 22 0z m67 98l0-135 67 0 0-21-68 0 0-38 111 0 0 194z m67-98l-23 0 0 61 23 0 0-61z m-269 98l45 0 0-135-45 0z m0 57l45 0 0-37-45 0z"/>
<glyph glyph-name="09-google" unicode="&#105;" d="M467 292c-69 0-139 0-208 0 0-29 0-57 0-86 40 0 80 0 120 0-4-28-21-53-44-68-14-10-31-17-48-20-18-3-36-3-53 1-18 3-35 10-49 21-24 16-42 40-51 68-10 27-10 58 0 86 7 19 18 37 32 52 18 18 41 31 66 36 21 5 44 4 65-2 18-6 34-15 48-28 13 13 27 27 40 40 7 8 15 15 22 22-21 19-45 35-71 44-48 18-101 18-149 2-54-19-100-59-125-110-9-18-16-36-20-56-9-48-3-99 20-143 14-28 35-53 60-73 23-19 51-33 80-41 37-10 76-9 113-1 33 8 65 24 90 47 27 25 46 57 56 92 11 38 13 78 6 117z"/>
<glyph glyph-name="10-html5" unicode="&#106;" d="M147 424l18 0 0-20 20 0 0 60-20 0 0-20-18 0 0 20-20 0 0-60 20 0z m64-20l20 0 0 40 18 0 0 20-55 0 0-20 17 0z m66 30l13-22 1 0 13 22 0-30 20 0 0 60-20 0-13-21-13 21-21 0 0-60 20 0z m105-10l-28 0 0 40-20 0 0-60 48 0z m-284-46l29-319 128-36 127 36 29 319z m251-104l-150 0 4-41 143 0-11-120-80-22 0 0-81 22-5 63 39 0 3-32 44-12 0 0 43 12 5 50-136 0-10 119 196 0z"/>
<glyph glyph-name="11-linkedin" unicode="&#107;" d="M270 269l0 0c0 0 0 0 0 0z m173 201l-379 0c-18 0-33-14-33-32l0-383c0-17 15-32 33-32l379 0c18 0 32 15 32 32l0 383c0 18-14 32-32 32z m-277-374l-67 0 0 202 67 0z m-34 229l0 0c-23 0-37 16-37 35 0 20 15 35 38 35 23 0 37-15 37-35 0-19-14-35-38-35z m276-229l-67 0 0 108c0 27-10 46-34 46-19 0-30-13-35-25-1-4-2-10-2-16l0-113-67 0c0 0 1 183 0 202l67 0 0-29c9 14 25 34 61 34 44 0 77-29 77-91l0-116z"/>
<glyph glyph-name="12-lastfm" unicode="&#108;" d="M405 273c-4 1-8 2-12 4-27 8-44 13-44 35 0 17 14 30 32 30 14 0 25-6 34-19 1-2 3-2 4-1l28 14c1 0 1 1 2 2 0 0 0 1-1 2-15 26-36 39-65 39-45 0-73-27-73-68 0-43 27-60 79-77 29-10 42-15 42-36 0-24-21-41-50-40-31 1-40 17-52 44-19 45-42 97-42 98-23 52-67 82-123 82-73 0-132-60-132-133 0-73 59-133 132-133 40 0 78 18 103 49 1 1 1 2 0 3l-16 39c-1 1-2 2-3 2-1 0-2-1-3-2-16-30-47-49-81-49-50 0-91 41-91 91 0 50 41 91 91 91 37 0 70-22 84-54l41-94 5-11c18-43 46-63 89-63 51 0 90 34 90 79 0 45-25 62-68 76z"/>
<glyph glyph-name="13-vimeo" unicode="&#109;" d="M32 306l18-24c0 0 38 29 50 15 12-15 60-192 76-225 13-29 52-66 93-39 42 27 181 145 206 285 25 140-167 111-188-11 51 30 78-13 52-61-26-49-49-80-62-80-12 0-22 32-36 89-15 59-14 164-75 152-58-11-134-101-134-101z"/>
<glyph glyph-name="14-yahoo" unicode="&#110;" d="M391 289c2 0 6 1 10 2l32 0 5 7c0 0 0 0 1 0l12 18c0 0 0 0-1 0l2 2-174 0 6-27 48 0-80-72c-17 22-55 69-82 108l60 0 0 21 1 4c0 1 0 1-1 1l0 1-198 0 0-27 59 0c23-18 110-127 114-138 1-10 2-70-2-75-8-9-48-7-57-7l-3-19c17 0 73 2 91 2 34 0 94 0 103-1l1 20c-9 1-56 0-63 1-1 10-3 73-1 80 6 19 106 96 117 99z m29-150l26-2 31 120c-5 0-52 4-58 6z m-5-19l0-30 14-1 14-1 5 29-16 0z"/>
<glyph glyph-name="15-tumblr" unicode="&#111;" d="M274 465l0-102 102 0 0-79-102 0 0-113c0-26 0-41 2-48 3-7 10-15 17-19 10-6 21-9 34-9 22 0 44 8 67 22l0-70c-19-8-36-15-52-18-15-4-32-6-49-6-21 0-33 3-48 8-16 5-29 12-40 22-11 9-18 19-23 30-4 11-6 26-6 46l0 155-60 0 0 63c17 5 37 14 50 24 12 11 22 23 30 38 7 15 12 34 15 56l63 0z"/>
<glyph glyph-name="16-apple" unicode="&#112;" d="M375 238c0 56 46 83 48 84-26 38-66 43-81 44-34 3-67-20-84-20-18 0-45 19-73 19-38-1-72-22-92-56-39-67-10-167 28-222 19-27 41-57 70-56 28 1 39 18 72 18 34 0 44-18 73-18 30 1 50 28 68 55 21 31 30 61 31 63-1 0-59 22-60 89z m-55 164c15 19 25 45 23 71-23-1-50-15-65-34-15-16-27-43-24-68 25-2 50 12 66 31z"/>
<glyph glyph-name="17-windows" unicode="&#113;" d="M217 255c-15 7-36 15-59 15-2 0-5 0-7 0-23-2-44-8-59-13-4-2-9-3-13-5l-41-140c31 12 55 17 76 17 34 0 58-13 80-28 8 28 37 124 42 143-6 3-12 7-19 11z m43-29l-40-140c0 0 47-29 82-29 22 0 49 6 83 20l38 135c-29-10-54-14-76-14-46 0-75 18-87 28z m-94 78c33 0 56-13 77-28 9 28 33 112 42 141l0 0c0 0-29 17-49 22-10 2-21 4-33 4 0 0 0 0 0 0-21 0-45-5-75-18l-40-139c31 12 56 18 77 18 0 0 1 0 1 0z m230 66c-44 0-73 19-86 29l-41-141c0 0 0-1 1-1 22-15 51-27 86-27 24 0 49 6 78 19 0 0 0 0 0 0 0 0 0 0 0 0l40 139c-30-13-56-18-78-18z"/>
<glyph glyph-name="18-youtube" unicode="&#114;" d="M394 259l-279 0c-45 0-81-36-81-81l0-65c0-44 36-80 81-80l279 0c45 0 81 36 81 80l0 65c0 45-36 81-81 81z m-220-51l-26 0 0-129-26 0 0 129-26 0 0 22 78 0z m73-129l-22 0 0 12c-4-4-9-8-13-10-5-2-9-4-13-4-5 0-9 2-12 5-2 4-4 9-4 15l0 94 23 0 0-86c0-3 0-4 1-6 1-1 2-1 5-1 1 0 3 0 6 2 2 1 5 3 7 6l0 85 22 0z m81 23c0-8-2-14-5-18-4-4-9-6-16-6-4 0-8 0-11 2-4 2-7 4-10 8l0-9-22 0 0 151 22 0 0-48c3 3 6 6 10 7 3 2 7 3 10 3 7 0 13-2 16-7 4-5 6-12 6-21l0-62z m77 30l-42 0 0-21c0-6 0-10 2-12 1-2 4-3 7-3 4 0 7 0 8 2 1 2 2 7 2 13l0 5 23 0 0-6c0-11-3-20-8-25-6-6-14-9-25-9-10 0-18 3-24 9-6 6-8 15-8 25l0 51c0 9 3 17 9 23 6 6 14 9 24 9 11 0 18-2 24-8 5-6 8-14 8-24z m-33 42c-3 0-6-1-7-3-2-2-2-6-2-10l0-11 19 0 0 11c0 4-1 8-2 10-2 2-4 3-8 3z m-76 0c-2 0-4 0-5-1-2-1-3-2-5-3l0-70c2-2 4-3 6-4 1 0 3-1 5-1 3 0 5 1 6 2 1 2 2 5 2 8l0 58c0 4-1 6-2 8-2 2-4 3-7 3z m-145 123l29 0 0 69 33 98-29 0-18-67-1 0-19 67-28 0 33-101z m100-3c11 0 20 3 27 9 6 6 9 14 9 25l0 63c0 10-3 17-10 23-6 6-15 9-25 9-11 0-21-3-27-8-7-6-10-13-10-23l0-64c0-10 3-18 9-24 7-7 16-10 27-10z m-11 99c0 3 1 5 3 7 2 1 5 2 8 2 3 0 6-1 8-2 2-2 3-4 3-7l0-67c0-3-1-6-3-8-2-2-5-2-8-2-4 0-6 0-8 2-2 2-3 5-3 8l0 67z m85-97c5 0 10 1 15 3 5 3 10 7 14 12l0-14 25 0 0 123-25 0 0-93c-2-3-5-5-7-7-3-1-6-2-7-2-3 0-5 0-6 2-1 1-1 3-1 6l0 94-25 0 0-102c0-8 1-13 4-17 3-4 7-5 13-5z"/>
<glyph glyph-name="19-delicious" unicode="&#115;" d="M467 466l-424 0c-5 0-10-4-10-9l0-424c0-6 5-10 10-10l424 0c5 0 9 4 9 10l0 424c0 5-4 9-9 9z m-212-424l0 203-203 0 0 202 203 0 0-202 202 0 0-203z"/>
<glyph glyph-name="20-rss" unicode="&#116;" d="M31 233c55 0 108-22 147-61 39-40 61-93 61-149l86 0c0 163-132 295-294 295z m0 152c198 0 359-162 359-362l86 0c0 247-200 447-445 447z m118-302c0-33-26-59-59-59-33 0-59 26-59 59 0 33 26 60 59 60 33 0 59-27 59-60z"/>
<glyph glyph-name="21-picasa" unicode="&#117;" d="M346 445c-29 13-60 20-91 20-27 0-53-5-78-15 6-5 161-146 169-153 0 11 0 145 0 148z m-205-390c0 8 0 180 0 190-8-7-89-81-92-83 18-45 50-82 92-107z m-108 189c0-19 3-39 8-58 6 6 193 175 197 178-4 4-82 74-84 76-74-38-121-113-121-196z m131-97c0-4 0-102 0-105 22-10 46-16 70-19l41 0c76 7 144 55 178 124-8 0-284 0-289 0z m205 285c0-8 0-257 0-261 5 0 91 0 94 0 9 23 13 48 13 73 0 76-41 148-107 188z"/>
<glyph glyph-name="22-deviantart" unicode="&#118;" d="M131 39l75 0 7 7 34 69 12 8 125 0 0 104-68 0-8 8 76 148 0 76-74 0-8-6-35-69-10-8-126 0 0-107 69 0 6-5-75-148z"/>
<glyph glyph-name="23-whatsapp" unicode="&#119;" d="M417 416c-42 42-98 65-157 65-122 0-221-100-221-222 0-39 10-77 29-110l-31-115 117 31c33-18 69-27 106-27l0 0c0 0 0 0 0 0 122 0 221 99 221 221 0 59-23 115-64 157z m-157-341l0 0c-33 0-65 9-94 26l-6 4-70-18 19 68-5 6c-18 30-28 64-28 98 0 102 83 184 184 184 49 0 95-19 130-54 35-34 54-81 54-130 0-101-83-184-184-184z m101 138c-6 3-33 16-38 18-5 2-9 3-12-3-4-5-15-18-18-21-3-4-6-5-12-2-5 3-23 9-44 28-17 14-28 32-31 38-3 5 0 8 2 11 3 3 6 7 9 10 3 3 3 5 5 9 2 4 1 7 0 10-2 3-13 30-17 41-5 11-9 9-13 9-3 1-7 1-10 1-4 0-10-2-15-7-5-6-19-19-19-46 0-28 19-54 22-58 3-3 39-59 95-83 13-6 23-9 31-12 13-4 25-3 35-2 11 2 33 13 37 26 5 13 5 24 4 27-2 2-6 3-11 6z"/>
<glyph glyph-name="24-snapchat" unicode="&#120;" d="M257 48c-1 0-2 0-3 0l0 0c-1 0-1 0-2 0-27 0-44 12-60 23-11 8-22 16-35 18-6 1-12 2-18 2-11 0-19-2-25-3-4-1-7-2-9-2-3 0-6 1-7 5-1 4-2 7-2 10-2 9-4 14-7 15-42 6-54 15-57 21 0 1-1 2-1 3 0 2 2 5 4 5 65 11 94 77 95 79 0 0 0 0 0 1 4 8 5 14 2 20-4 11-18 15-28 18-2 1-5 2-6 2-19 8-21 16-20 20 1 6 10 11 17 11 2 0 4 0 5-1 9-4 17-6 23-6 10 0 14 4 14 4 0 5 0 9-1 14-2 30-4 68 6 90 29 65 90 70 108 70 0 0 8 0 8 0l1 0c18 0 80-5 109-70 9-22 7-60 5-90l0-1c0-5-1-9-1-13 0 0 4-4 13-4l0 0c6 0 13 2 21 6 3 1 5 1 7 1 3 0 5 0 8-1l0 0c6-3 11-7 11-12 0-4-4-11-20-18-2 0-4-1-7-2-9-3-24-7-28-18-3-6-2-12 2-20 0-1 0-1 0-1 1-2 30-68 95-79 2 0 4-3 4-5 0-1 0-2-1-3-3-6-14-15-56-21-4-1-5-5-7-15-1-3-2-6-3-10-1-3-3-4-6-4l0 0c-3 0-6 0-10 1-7 1-15 3-25 3-6 0-12-1-18-2-13-2-23-10-35-18-16-11-33-23-60-23z"/>
<glyph glyph-name="25-blogger" unicode="&#121;" d="M470 277l-4 8-6 4c-8 7-48 0-59 10-8 7-9 20-12 37-4 34-7 35-12 47-19 40-70 70-106 74l-96 0c-75 0-137-61-137-137l0-160c0-75 62-137 137-137l158 0c75 0 137 62 137 137l1 111z m-293 68l76 0c15 0 26-11 26-26 0-14-11-26-26-26l-76 0c-14 0-26 12-26 26 0 15 12 26 26 26z m155-209l-155 0c-14 0-26 12-26 26 0 15 12 26 26 26l155 0c14 0 26-11 26-26 0-14-12-26-26-26z"/>
<glyph glyph-name="26-wordpress" unicode="&#122;" d="M32 248c0-87 51-163 125-199l-106 289c-12-27-19-58-19-90z m371 11c0 28-10 47-19 61-11 19-21 34-21 52 0 21 15 40 37 40 1 0 2-1 3-1-40 36-92 59-150 59-77 0-145-40-184-100 5 0 10 0 14 0 23 0 59 2 59 2 12 1 13-16 1-18 0 0-12-1-25-2l80-240 49 146-35 94c-12 1-23 2-23 2-12 1-10 19 2 18 0 0 36-2 58-2 23 0 59 2 59 2 12 1 13-16 1-18 0 0-12-1-25-2l80-238 22 74c11 29 17 53 17 71z m-146-30l-66-193c20-6 41-9 62-9 26 0 51 5 74 13-1 1-1 2-2 3z m190 125c1-7 2-14 2-22 0-23-4-48-17-80l-67-195c65 38 110 110 110 191 0 39-10 75-28 106z"/>
<glyph glyph-name="27-amazon" unicode="&#65;" d="M409 106c-2 0-4-1-6-2-2-1-5-2-7-3l-3-1-5-2 0 0c-46-19-95-30-140-31-1 0-3 0-5 0-71 0-129 33-187 66-2 1-4 1-6 1-3 0-6-1-8-3-1-2-3-4-3-7 0-3 2-7 5-9 55-47 115-92 196-92 1 0 3 0 4 0 52 2 110 19 155 47l0 0c6 4 12 8 18 12 3 3 6 7 6 11-1 8-7 13-14 13z m63 26l0 0c0 4-1 8-3 11l0 0 0 0c-2 2-4 3-6 4-6 2-15 3-25 4-8 0-16-1-24-3l0 1-8-3-1 0-4-2 0 0c-6-2-11-5-15-9-3-2-6-5-6-9 0-2 1-5 3-7 2-1 5-2 7-2 0 0 1 0 1 0l0 0 1 0c4 1 10 2 17 3 6 0 12 1 17 1 4 0 8 0 10-1 1 0 2 0 3-1 0 0 0 0 0 0 0 0 0-1 0-2 0-5-2-13-4-22-3-8-6-16-8-22-1-1-1-2-1-4 0-2 1-5 3-7 2-1 4-2 6-2l0 0c3 0 6 1 8 3 21 19 29 49 29 66z m-193 203c-13-1-27-1-41-3-22-3-44-7-62-16-36-14-59-45-59-89 0-57 36-85 82-85 15 0 27 2 39 4 18 6 33 17 51 36 11-15 14-21 32-37 5-1 9-1 13 1 12 10 32 27 42 37 5 4 4 9 1 14-10 13-21 25-21 51l0 86c0 36 3 69-24 94-22 20-56 28-83 28l-11 0c-49-3-100-24-112-84-2-8 4-11 8-12l53-6c6 1 9 5 10 10 5 21 22 32 41 34l4 0c11 0 23-5 30-15 8-11 7-27 7-40l0-8z m-11-113c-6-13-18-22-30-25-2 0-5-1-8-1-21 0-33 16-33 40 0 31 18 45 41 52 12 3 27 4 41 4l0-12c0-22 1-39-11-58z"/>
<glyph glyph-name="28-appstore" unicode="&#66;" d="M214 249l38 65c2 5 1 11-4 14l-27 15c-5 3-11 2-14-3l-41-71-45-79-37-65c-3-5-1-11 4-14l26-15c5-3 11-2 14 3l52 91z m251 20l-90 0c11-20 21-39 28-52 4-9 8-16 10-19 1-2 2-5 3-8l49 0c5 0 10 4 10 9l0 60c0 5-5 10-10 10z m-218 0l-45-79 122 0c-9 18-21 43-37 79z m-102 0l-103 0c-6 0-10-5-10-10l0-60c0-5 4-9 10-9l58 0z m-39-185l-27 15c-5 3-9 1-10-5l-5-40c0-6 3-8 8-4l34 23c5 3 4 8 0 11z m290 105c0 1 0 1 0 1-3 5-9 17-17 32 0 0 0 1 0 1-1 1-2 2-2 3-1 1-1 2-2 3 0 1 0 2-1 2-1 2-1 3-2 5 0 0-1 0-1 1-1 1-1 3-2 5 0 0-1 1-1 1-19 35-42 79-57 102-25 40-59 107-69 103-13-7 28-92 42-124 13-32 66-155 77-160 11-5 15-2 22 1 7 3 20 12 13 24z m31-63l-13 24c-3 6-10 8-15 5l-15-7c-6-3-7-10-4-15l16-25c3-6 10-7 16-4l10 6c6 4 8 11 5 16z m-4-35c-4-4-14-12-2-28 11-17 37-17 40-28 0 0 8 82-38 56z"/>
<glyph glyph-name="29-paypal" unicode="&#67;" d="M274 294c3 2 6 4 9 7 8 7 14 16 16 27 5 15 0 28-11 36-5 4-12 6-20 6l-45 0-1-6-19-79 44 0c9 0 19 3 27 9z m-27 45l21 0c1 0 2 0 2 0 0 0 0-1 0-3l0-1 0 0c-3-10-14-19-23-19l-5 0z m202 13c-9 10-20 20-32 27-5 18-13 32-21 42-21 27-56 43-94 43l-182 0-5-24-70-310-8-37 68 0-7-32-8-38 155 0 5 24 17 79 42 0c80 0 143 49 160 126 10 49-5 81-20 100z m-337-229l-37 0 70 310 157 0c29 0 61-13 77-41 6-10 9-21 10-34 0-9-1-19-3-30-5-26-17-46-33-63-23-25-57-39-95-39 0 0-1 0-2 0l-66 0-23-103z m327 135c-14-64-67-102-130-102l-66 0-23-102-92 0 9 39 55 0 5 24 18 78 41 0c80 0 143 50 160 126 1 6 2 13 3 18 18-17 28-44 20-81z"/>
<glyph glyph-name="30-myspace" unicode="&#68;" d="M476 204l-443 0 0 107 49 0 0-57 345 0 0 57 49 0z"/>
<glyph glyph-name="31-dropbox" unicode="&#69;" d="M32 207l131-86 92 77-133 82z m131 231l-131-86 90-72 133 81z m314-86l-131 86-91-77 132-81z m-222-154l91-77 131 86-90 73z m0-17l-92-76-40 26 0-29 132-79 131 79 0 29-39-26z"/>
<glyph glyph-name="32-windows8" unicode="&#70;" d="M34 96l178-26 0 170-178 0z m0 169l178 0 0 170-178-26z m202-199l239-34 0 208-239 0z m0 373l0-174 239 0 0 208z"/>
<glyph glyph-name="33-pinterest" unicode="&#71;" d="M273 470c-122 0-184-87-184-160 0-44 17-83 53-98 6-3 11 0 13 6 1 5 4 16 5 21 2 6 1 9-4 14-10 12-17 28-17 51 0 65 49 123 127 123 69 0 107-42 107-99 0-74-33-136-82-136-27 0-47 22-40 49 7 33 22 68 22 91 0 21-11 39-34 39-28 0-50-29-50-67 0-24 8-40 8-40 0 0-28-119-33-140-9-42-1-93 0-98 0-3 4-4 6-1 2 3 35 43 46 84 3 11 18 70 18 70 9-17 35-32 63-32 82 0 138 76 138 176 0 77-64 147-162 147z"/>
<glyph glyph-name="34-soundcloud" unicode="&#72;" d="M55 187c1 0 1 0 1 1l5 39-5 40c0 1 0 2-1 2-1 0-2-1-2-2 0 0-5-40-5-40l5-39c0-1 1-1 2-1z m-15 16c0 0 0 0 0 0z m-2-2c1 0 2 1 2 2l4 24-4 25c0 1-1 2-2 2-1 0-1-1-2-2l-3-25 3-24c1-1 1-2 2-2z m36 74c0 1-1 2-2 2-1 0-2-1-2-2 0 0-4-48-4-48l4-45c0-1 1-2 2-2 1 0 2 1 2 2l5 45z m16-97c1 0 2 1 2 2l5 47-5 49c0 1-1 2-2 2-2 0-3-1-3-2l-4-49 4-47c0-1 1-2 3-2z m17-1c2 0 3 1 3 3l0 0 4 47-4 45c0 2-1 3-3 3-1 0-3-1-3-3l-3-45 3-47c0-2 2-3 3-3z m25 50l-4 74c0 1-1 3-3 3-2 0-3-2-3-3l-4-74 4-47c0-2 1-3 3-3 2 0 3 1 3 3l0 0z m11-50c2 0 4 1 4 3l0 0 3 47-3 90c0 2-2 4-4 4-2 0-4-2-4-4l-3-90 3-47c0-2 2-3 4-3z m18 152c-2 0-4-2-4-4l-3-98 3-46c0-2 2-4 4-4 2 0 4 2 4 4l0 0 4 46-4 98c0 2-2 4-4 4z m18-152c3 0 5 2 5 4l0 0 3 46-3 101c0 3-2 4-5 4-2 0-4-1-4-4l-3-101 3-46c0-2 2-4 4-4z m19 0c2 0 5 2 5 5l0 0 3 45-3 98c0 3-3 5-5 5-3 0-5-2-5-5l-3-98 3-45c0-3 2-5 5-5z m26 50l-2 95c-1 3-3 5-6 5-3 0-5-2-5-5l-2-95 2-45c0-3 2-5 5-5 3 0 5 2 6 5l0 0z m11-50c3 0 6 2 6 5l0 0 2 45-2 113c0 3-3 5-6 5-3 0-6-2-6-5l-2-113c0 0 2-45 2-45 0-3 3-5 6-5z m19 179c-4 0-6-3-6-6l-3-123 3-44c0-3 2-6 6-6 3 0 6 3 6 6l0 0 2 44-2 123c0 3-3 6-6 6z m17-179c0-1 150-1 151-1 30 0 54 25 54 55 0 30-24 54-54 54-8 0-15-1-21-4-5 49-46 88-96 88-12 0-24-3-35-7-4-1-5-3-5-6l0-173c0-3 2-6 6-6z"/>
<glyph glyph-name="35-google-drive" unicode="&#73;" d="M187 157l-3 0-1-2-61-106-3-6 293 0 1 2 61 106 3 6z m157 27l1-2 3 0 122 0 8 0-4 7-142 245-1 2-3 0-122 0-7 0 3-7z m-102 125l-1 2-62 106-3 6-4-6-142-246-1-2 1-2 62-106 4-6 3 6 142 246z"/>
<glyph glyph-name="36-android" unicode="&#74;" d="M315 435l4 7 5 8 11 16c2 2 1 5-1 6-2 1-5 1-6-1l-12-18-5-7-5-7c-15 6-33 9-51 9-19 0-36-3-52-9l-5 7-5 7-12 18c-1 2-4 2-6 1-2-1-2-4-1-6l11-16 5-8 5-7c-37-17-62-50-62-87l244 0c0 37-25 70-62 87z m-113-52c-7 0-13 6-13 13 0 7 6 13 13 13 8 0 13-6 13-13 0-7-5-13-13-13z m105 0c-7 0-13 6-13 13 0 7 6 13 13 13 7 0 13-6 13-13 0-7-6-13-13-13z m-172-53l-2 0 0-191c0-15 12-28 27-28l20 0c0-2-1-4-1-7l0-55c0-14 12-26 26-26 15 0 26 12 26 26l0 55c0 3 0 5-1 7l49 0c-1-2-1-4-1-7l0-55c0-14 12-26 26-26 14 0 26 12 26 26l0 55c0 3 0 5-1 7l20 0c15 0 28 13 28 28l0 191z m-46 0c-14 0-26-11-26-26l0-111c0-15 12-27 26-27 15 0 26 12 26 27l0 111c0 15-11 26-26 26z m331 0c-14 0-26-11-26-26l0-111c0-15 12-27 26-27 15 0 26 12 26 27l0 111c0 15-11 26-26 26z"/>
<glyph glyph-name="37-behance" unicode="&#75;" d="M212 243c0 0 42 3 42 52 0 50-35 74-78 74l-145 0 0-277 145 0c0 0 87-2 87 82 0 0 4 69-51 69z m-117 77l80 0c0 0 20 0 20-29 0-29-11-33-25-33l-75 0 0 62z m76-178c-2-1-4 0-5 0l-71 0 0 73 81 0c0 0 29 1 29-38 0-32-22-35-34-35z m210 157c-107 0-107-107-107-107 0 0-7-105 107-105 0 0 94-6 94 73l-48 0c0 0 1-30-45-30 0 0-48-3-48 49l143 0c0 0 16 120-96 120z m-48-84c0 0 6 43 49 43 43 0 42-43 42-43z m-12 138l114 0 0-34-114 0z"/>
<glyph glyph-name="38-instagram" unicode="&#76;" d="M253 362c-63 0-115-51-115-115 0-64 52-115 115-115 64 0 115 52 115 115 0 63-52 115-115 115z m0-189c-40 0-73 34-73 74 0 40 33 74 73 74 41 0 74-34 74-74 0-40-33-74-74-74z m146 192c0-15-12-26-26-26-15 0-26 11-26 26 0 14 11 26 26 26 14 0 26-12 26-26z m41 67c-23 24-56 37-94 37l-185 0c-78 0-130-52-130-130l0-185c0-38 12-71 37-96 25-23 57-35 94-35l183 0c39 0 71 13 94 35 24 24 37 57 37 96l0 185c0 37-13 70-36 93z m-5-278c0-28-8-51-24-66-17-15-39-23-66-23l-183 0c-27 0-50 8-66 23-16 16-24 39-24 66l0 185c0 27 8 49 24 65 15 15 39 24 66 24l185 0c27 0 49-9 65-25 16-16 25-38 25-64l0-185z"/>
<glyph glyph-name="39-ebay" unicode="&#77;" d="M364 208c0 16 1 30 0 39 0 11 1 39-48 41 0 0-46 4-51-31l24 0c0 0 1 16 26 16 22-1 26-12 26-26 0 0-19 0-26 0-11 0-51-1-56-25 1 4 1 8 1 12 1 34-25 53-53 53-29 0-41-16-41-16l0 56-22 0 0-90c-1 16-8 50-55 50-56 0-58-43-58-55 0 0-3-50 57-50 50 0 53 31 53 31l-23 0c0 0-5-17-30-17-33 1-34 32-34 32l90 0c0 0 0 1 0 2l0-22c0 0 0-14-1-23l22 0 1 13c0 0 10-16 40-16 26 0 47 13 53 39 0 0 0 0-1 0-4-30 23-40 43-39 21 0 33 6 42 17l1-14 21 0c0 0-1 8-1 23z m-309 36c0 0 1 28 33 28 32 0 32-28 32-28z m146-47c-35-1-35 37-35 37 0 0-1 37 35 38 36 1 35-38 35-38 0 0 1-37-35-37z m104-1c0 0-22 0-24 18-1 19 35 18 35 18l26 0c0 0 4-37-37-36z m149 87l-38-76-38 76-26 0 52-98-20-37 25 0 69 135z"/>
<glyph glyph-name="40-google-plus" unicode="&#78;" d="M177 280c0-16 0-32 0-48 27-1 54 0 81-1-12-60-94-79-137-40-44 34-42 110 4 141 32 26 78 20 110-2 13 11 25 24 36 37-26 21-59 36-94 35-73 2-141-62-142-135-4-60 35-118 90-139 56-21 126-7 162 43 23 31 28 71 25 109-45 1-90 1-135 0z m264 1c0 13 0 27 0 40-14 0-27 0-41 0 0-13 0-27 0-40-14 0-27-1-41-1 0-13 0-27 0-40 14 0 27 0 41 0 0-14 0-27 0-41 14 0 27 0 41 0 0 14 0 27 0 41 13 0 27 0 40 0 0 13 0 27 0 40-13 0-27 0-40 1z"/>
<glyph glyph-name="41-github" unicode="&#79;" d="M477 250c0 0 0 0 0 0 1 0 2 0 2 1 0 1-1 2-1 2-21 4-37 8-88 8 3 12 5 26 5 42 0 45-21 61-26 69 7 34-1 49-4 55-12 4-43-11-59-22-27 8-84 7-106-2-39 28-60 24-60 24 0 0-14-25-4-60-13-17-22-28-22-59 0-18 2-34 6-47-20 0-64-3-84-8-1 0-1-1-1-2 0-1 1-1 1-1 1 0 1 0 1 0 20 5 65 8 84 8 2-3 3-6 4-9-50-1-63-8-84-14-2 0-3 0-5-1 0 0-1-1-1-2 0 0 1-1 2-1 0 0 0 0 0 0 2 1 3 1 5 1 21 6 34 13 85 14 15-27 43-44 92-48-7-6-16-16-17-27-8-6-26-7-39-3-19 6-27 43-55 38-6-1-5-5 0-9 9-5 17-12 23-27 5-12 15-32 48-32 12 0 21 1 21 1 0 0 0-29 0-40 0-13-17-17-17-23 0-3 6-3 10-3 10 0 29 8 29 21 0 11 0 48 0 54 0 14 8 18 8 18 0 0 1-74-2-84-3-12-9-10-9-15 0-8 23-2 31 15 6 13 3 86 3 86l7 0c0 0 0-33 0-48 0-16-1-36 8-46 6-6 26-17 26-7 0 6-11 11-11 26 0 17 0 68 0 72 9 0 8-23 8-23l0-44c0 0-2-16 18-23 6-2 21-3 22 1 0 4-18 10-18 22 0 8 0 12 0 45 0 33-4 45-19 55 47 5 76 16 91 48 16-1 51-2 91-15 0 0 0 0 0 0 1 0 1 1 2 1 0 1-1 2-1 2-40 12-73 14-91 15 1 3 2 6 3 9 52 0 67-4 88-8z m-360-50c-2 0-3 1-3 2 0 1 1 2 3 2 2 0 4-1 4-2 0-1-2-2-4-2z m8-4c0 2 1 3 3 3 2 0 3-1 3-3 0-1-1-2-3-2-2 0-3 1-3 2z m6-7c0 1 2 2 4 2 1 0 3-1 3-2 0-2-2-3-3-3-2 0-4 1-4 3z m9-11c-2 0-3 1-3 2 0 1 1 2 3 2 2 0 4-1 4-2 0-1-2-2-4-2z m7-9c-2 0-4 1-4 3 0 1 2 2 4 2 2 0 3-1 3-2 0-2-1-3-3-3z m9-7c-2 0-4 1-4 2 0 2 2 3 4 3 2 0 3-1 3-3 0-1-1-2-3-2z m12-4c-2 0-3 1-3 2 0 1 1 2 3 2 2 0 3-1 3-2 0-1-1-2-3-2z m12 0c-2 0-3 1-3 2 0 1 1 2 3 2 2 0 4-1 4-2 0-1-2-2-4-2z m13 2c-2 0-4 1-4 2 0 1 2 2 4 2 2 0 3-1 3-2 0-1-1-2-3-2z m97 48c-10 0-21 0-31 0-11 0-22 0-31 0-53 2-81 24-81 62 0 4 1 18 11 31 11 13 27 19 47 19 1 0 4 0 9 0 10-1 28-2 45-2 16 0 32 1 41 2 4 0 5 0 7 0 42 0 57-27 57-52 0-26-13-58-74-60z m-183-33c8 0 0 13 0 19 0-6-8-19 0-19z m160 55c-1 0-2 0-2-1 0-4-4-7-9-7-1 0-1 0-2 0-2 0-3 1-5 2 0 0 0 0 0 0-1 1-2 2-2 2-1 1-1 2-1 3 0 1-1 1-2 1-1 0-1 0-1-1 0-1 0-1 0-2 0-1 0-1 1-2 1-1 1-2 2-3 1-1 2-1 3-2 2-1 3-1 5-1 1 0 1-1 2-1 3 0 6 2 8 3 0 0 1 1 1 1 0 0 1 1 1 1 1 2 2 3 2 5 0 0 0 0 0 1 0 1 0 1-1 1z m-16 8c1 0 1-1 2-1 0 0 0 0 1 0 0-1 1-1 1-1 0 0 1 0 1 0 1 0 2 0 3 1 0 0 0 0 1 1 0 0 0 1 1 1 0 1 0 2 0 2 0 3-2 6-5 6-2 0-3-1-4-2 0 0 0 0 0 0 0 0 0-1-1-1 0-1 0-1 0-2 0 0 0 0 0-1 0 0 0 0 0-1 0 0 0-1 0-2z m-39 56c-1 1-2 2-3 3-1 1-3 2-4 3-1 0-3 1-4 1-1 0-2 0-2 0-12 0-22-14-22-32 0-18 10-31 22-31 0 0 1 0 2 0 1 0 3 1 4 1 1 1 3 2 4 2 1 1 2 2 3 4 2 1 3 2 3 4 4 5 5 12 5 20 0 7-1 15-5 20 0 2-1 3-3 5z m105 7c-12 0-22-14-22-32 0-18 10-31 22-31 12 0 21 13 21 31 0 18-9 32-21 32z"/>
<glyph glyph-name="42-stackoverflow" unicode="&#80;" d="M196 348l149-88-18-32-150 88z m-40-86l168-45-10-36-168 46z m-17-77l173-16-3-37-173 16z m-5-64l174 0 0-37-174 0z m203-67l-228 0 0 152-29 0 0-181 0 0c0 0 9 0 9 0l278 0 0 0c0 0 0 9 0 9l0 172-30 0z m14 211l-97 143 30 21 98-143z m8 194l37 7 29-172-36-6z"/>
<glyph glyph-name="43-spotify" unicode="&#81;" d="M381 137c-52 31-111 46-178 46-39 0-76-5-114-13-9-2-17-8-17-21 0-10 8-19 20-19 4 0 10 2 15 3 31 6 63 10 96 10 58 0 114-14 158-41 4-2 8-4 13-4 10 0 19 8 19 19 0 11-5 16-12 20z m36 90c-61 36-138 56-218 56-51 0-86-7-120-17-13-3-19-12-19-25 0-14 11-24 24-24 5 0 9 2 14 3 28 8 61 13 100 13 75 0 144-20 194-49 4-3 8-5 15-5 13 0 24 10 24 24 0 10-4 18-14 24z m41 102c-69 40-163 59-253 59-53 0-101-6-145-19-11-3-21-13-21-29 0-17 13-29 29-29 5 0 11 2 16 3 38 10 80 15 121 15 83 0 169-19 224-52 6-3 10-4 16-4 15 0 29 11 29 28 0 15-7 23-16 28z"/>
<glyph glyph-name="44-stumbleupon" unicode="&#82;" d="M276 292l30-14 45 13 0 31c-1 53-45 96-99 96-53 0-96-42-98-95l0-143c0-13-11-23-24-23-12 0-23 10-23 23l0 61-76 0c0 0 0-61 0-62 0-54 45-98 99-98 54 0 98 43 99 97l0 141c0 13 11 23 23 23 13 0 24-10 24-23l0-27z m122-51l0-64c0-13-11-23-23-23-13 0-24 10-24 23l0 62-45-13-30 14 0-62c0-54 44-97 99-97 54 0 99 44 99 98 0 1 0 62 0 62z"/>
<glyph glyph-name="45-visa" unicode="&#83;" d="M220 310l-29-137 35 0 30 137z m-52 0l-37-93-15 79c-2 9-9 14-17 14l-60 0-1-4c13-2 27-7 35-11 5-3 7-6 9-12l28-110 37 0 58 137z m281 0l-30 0c-7 0-13-4-16-10l-53-127 37 0 8 21 45 0 5-21 33 0z m-44-88l19 51 11-51z m-103 50c0 5 5 11 15 12 5 1 19 1 35-6l7 29c-9 3-20 6-34 6-35 0-59-19-60-45 0-20 18-31 31-38 14-7 19-11 19-17 0-9-11-13-21-13-18-1-29 5-37 8l-6-30c8-4 23-7 39-7 38 0 62 18 62 47 0 36-50 38-50 54z"/>
<glyph glyph-name="46-mastercard" unicode="&#84;" d="M123 231c0-3 2-5 5-5 6 0 10 5 10 13-1 1-2 1-3 1-8 0-12-3-12-9z m230 0c0-3 2-5 5-5 6 0 11 5 11 13-2 1-2 1-3 1-9 0-13-3-13-9z m-109 28c-5 0-8-4-10-10l16 0c0 1 2 10-6 10z m195-2c-6 0-11-8-11-19 0-7 2-10 7-10 7 0 12 7 12 18 0 7-3 11-8 11z m-94 128c-34 0-66-13-90-34-23 21-55 34-89 34-75 0-135-60-135-135 0-74 60-135 135-135 34 0 66 13 89 35 24-22 56-35 90-35 75 0 135 61 135 135 0 75-60 135-135 135z m-257-170l8 52-19-52-10 0-1 52-9-52-13 0 11 68 21 0 1-42 14 42 23 0-12-68z m49 0l0 5c-4-4-9-6-15-6-8 0-14 6-14 15 0 13 10 21 26 21 2 0 4 0 6 0 0 2 1 3 1 4 0 3-3 5-10 5-7 0-13-2-15-3 0 1 2 13 2 13 7 2 12 3 17 3 13 0 19-6 19-17 0-3 0-6-1-11-1-8-4-25-4-29-2 0-12 0-12 0z m43 33c7-4 10-8 10-16 0-12-7-18-23-18-9 0-12 1-15 1 0 1 2 13 2 13 5-1 9-2 13-2 6 0 9 2 9 5 0 3-1 3-7 6-8 4-11 9-11 16 0 10 5 19 22 19 3 0 9-1 13-2l-3-12c-3 0-7 0-10 0-5 0-7-1-7-4 0-3 1-3 7-6z m32-21c2 0 3 0 4 1l-2-12c-4-2-7-2-11-2-7 0-11 4-11 12 0 2 1 9 2 15 1 5 6 38 6 38l15 0-2-9 8 0-2-13-8 0c-2-11-4-24-4-26 0-2 1-4 5-4z m34-1c5 0 10 1 15 4l-2-14c-5-2-10-2-15-2-17 0-25 8-25 25 0 19 11 33 25 33 12 0 20-8 20-21 0-4-1-8-2-13l-29 0c-1-8 4-12 13-12z m33-11l-15 0 1 3c2 18 5 35 7 52l14 0c0-3-1-5-1-8 4 6 8 10 14 9-2-3-4-10-6-16-8 0-9-6-14-40z m56 1c-6-2-9-2-13-2-16 0-26 11-26 29 0 25 14 42 33 42 7 0 14-3 16-4l-2-15c-5 3-9 4-13 4-11 0-19-10-19-26 0-10 5-16 14-16 3 0 7 1 12 3z m45-1c-2 0-13 0-13 0l1 5c-4-4-9-6-16-6-8 0-13 6-13 15 0 13 9 21 26 21 1 0 3 0 6 0 0 2 0 3 0 4 0 3-2 5-9 5-7 0-13-2-16-3 0 1 2 13 2 13 8 2 12 3 18 3 12 0 19-6 19-17 0-3 0-6-1-11-1-8-4-25-4-29z m19 0l-15 0 1 3c3 18 6 35 8 52l13 0c0-3 0-5-1-8 5 6 8 10 14 9-1-3-4-10-5-16-8 0-10-6-15-40z m44 0l1 5c-4-4-8-6-14-6-10 0-17 9-17 23 0 18 11 34 23 34 6 0 10-2 14-8l4 20 14 0-11-68z"/>
<glyph glyph-name="47-amex" unicode="&#85;" d="M461 176l-24 0 0-11 24 0c8 0 14 2 17 7 2 2 3 6 3 10 0 4-1 7-3 9 0 1 0 1-1 2-3 3-7 4-14 4l-7 0c-2 0-3 0-5 1-1 0-2 2-2 4 0 1 0 3 1 4 2 0 3 0 6 0l22 0 0 267-447 0 0-189 15 35 33 0 4-9 0 9 39 0 8-19 8 19 122 0c6 0 11-1 15-5l0 5 33 0 0-5c6 4 13 5 21 5l48 0 5-9 0 9 36 0 5-9 0 9 35 0 0-74-36 0-6 11 0-11-44 0-5 12-11 0-5-12-23 0c-9 0-16 2-20 5l0-5-54 0 0 17c0 2-1 2-2 2l-2 0 0-19-105 0 0 9-4-9-22 0-4 9 0-9-42 0-5 12-11 0-5-12-21 0 0-221 447 0 0 134c-5-2-11-3-18-3l-33 0 0 4c-3-3-10-4-17-4l-102 0 0 17c0 2-1 2-3 2l-1 0 0-19-34 0 0 20c-6-3-12-3-18-3l-4 0 0-17-41 0-10 11-11-11-66 0 0 73 68 0 9-11 11 11 45 0c5 0 14 0 18-4l0 4 41 0c3 0 12-1 16-4l0 4 62 0 0-4c3 3 9 4 15 4l34 0 0-4c4 2 9 4 16 4l23 0 0-10-25 0c-13 0-18-8-18-16 0-17 15-16 27-16 2 0 3-1 4-1 1-1 2-2 2-4 0-1-1-3-2-3-1-1-2-2-5-2z m-130 28c0 6-2 9-6 11-4 2-9 3-15 3l-29 0 0-53 12 0 0 19 14 0c4 0 7 0 9-2 2-3 2-7 2-10l0-7 13 0 0 10c0 5-1 8-2 10-2 2-4 3-7 4 4 2 9 6 9 15z m-16-8c-2-1-4-1-6-1l-16 0 0 12 16 0c2 0 4 0 6-1 1-1 2-3 2-5 0-2-1-4-2-5z m-61 22l-41 0-16-18-15 18-51 0 0-53 50 0 16 17 16-17 24 0 0 18 16 0c11 0 22 3 22 17 0 15-11 18-21 18z m-79-42l-31 0 0 10 27 0 0 11-27 0 0 10 31 0 14-16z m50-6l-20 21 20 21z m28 23l-16 0 0 14 17 0c4 0 7-2 7-7 0-4-3-7-8-7z m77 104l12 0 0 11-12 0c-9 0-15-2-20-6-5-6-6-13-6-20 0-10 2-16 6-21 5-4 13-5 19-5l14 0 5 11 26 0 5-11 26 0 0 39 24-39 17 0 0 52-12 0 0-36-23 36-19 0 0-50-21 50-19 0-18-41-5 0c-4 0-7 0-9 3-2 2-3 6-3 12 0 5 1 10 3 12 3 2 5 3 10 3z m31 2l9-21-17 0z m51-123l-24 0 0-11 24 0c13 0 20 5 20 17 0 5-1 8-4 11-3 3-7 4-14 4l-7 0c-2 0-3 0-5 1-1 0-3 2-3 4 0 1 1 3 2 4 2 0 3 0 5 0l24 0 0 12-26 0c-13 0-18-8-18-16 0-17 15-16 27-16 2 0 3-1 4-1 1-1 2-2 2-4 0-1-1-3-2-3-1-1-2-2-5-2z m-336 91l5-11 25 0 0 41 18-41 12 0 18 41 0-41 13 0 0 52-21 0-15-35-17 35-20 0 0-50-22 50-18 0-23-52 14 0 5 11z m-13 32l8-21-17 0z m214-5c0 6-2 9-6 12-4 2-9 2-15 2l-29 0 0-52 12 0 0 19 14 0c4 0 7-1 9-2 2-3 2-8 2-11l0-6 13 0 0 10c0 5 0 7-2 10-1 1-4 3-6 4 3 1 8 6 8 14z m-16-7c-2-1-4-1-6-1l-16 0 0 11 16 0c2 0 4 0 6-1 2 0 3-2 3-4 0-3-1-4-3-5z m24 21l13 0 0-52-13 0z m95-101l0 11-42 0 0-53 42 0 0 11-29 0 0 10 29 0 0 11-29 0 0 10z m-162 90l0 11-42 0 0-52 42 0 0 11-29 0 0 10 28 0 0 11-28 0 0 9z"/>
<glyph glyph-name="48-ios" unicode="&#86;" d="M212 370c-18 0-33-4-48-11-38-20-60-60-60-111 0-50 21-89 60-108 10-5 21-7 37-9 8-1 15-1 23 0 16 2 26 4 37 9 38 19 60 58 60 108 0 51-22 91-61 111-15 7-30 11-48 11z m15-36c24-6 40-27 47-57 4-22 3-46-3-66-11-30-32-47-59-47-26 0-48 17-58 47-7 20-8 44-3 66 6 30 23 51 46 57 10 2 21 2 30 0z m-168 36c-13 0-23-10-23-23 0-13 10-23 23-23 13 0 23 10 23 23 0 13-10 23-23 23z m-21-70l0-170 43 0 0 170z m346-169c-19 3-37 5-52 14 0 0 9 34 10 35 24-9 58-20 81-10 12 7 19 18 16 32-2 15-12 23-41 34-32 12-50 26-58 46-4 9-5 21-3 31 4 29 27 49 62 55 10 2 31 2 42 1 15-3 32-9 32-11 0-1-9-33-9-33-15 6-32 10-46 10-21 0-42-12-39-33 3-13 12-20 43-32 23-10 34-16 43-26 13-13 17-28 18-43 0-13-2-19-6-29-11-24-34-37-67-41-7-1-21-1-26 0z"/>
<glyph glyph-name="49-osx" unicode="&#87;" d="M252 469c-122 0-222-100-222-223 0-123 100-222 222-222 123 0 223 99 223 222 0 123-100 223-223 223z m0-427c-112 0-204 92-204 204 0 113 92 205 204 205 113 0 205-92 205-205 0-112-92-204-205-204z m75 329l-75-106-74 106-26 0 88-124-88-125 26 0 74 107 75-107 26 0-88 125 88 124z"/>
<glyph glyph-name="50-evernote" unicode="&#88;" d="M103 383c0 0 0 0 0 0l41 0c2 0 4 2 4 4 0 0 0 36 0 46l0 0c0 8 2 15 5 21l1 2c0 0 0 0-1 0l-80-79c0 0 0-1 0-1 2 1 4 2 4 2 7 3 16 5 26 5z m321 9c-3 17-14 26-23 29-10 4-31 8-57 11-21 2-45 2-60 2-2 12-10 23-20 27-25 10-65 8-75 5-8-2-17-7-22-14-3-5-5-11-5-19 0-5 0-16 0-26 0-11 0-20 0-20 0-9-7-16-16-16l-41 0c-9 0-16-1-21-4-5-2-9-5-12-9-5-7-6-16-6-26 0 0 0-7 2-22 1-12 14-91 26-116 4-9 7-13 16-17 20-9 66-18 87-21 21-3 35-8 43 8 0 0 1 5 4 11 6 21 7 39 7 53 0 1 2 1 2 0 0-10-1-43 24-53 10-3 31-6 52-9 19-2 33-9 33-59 0-29-6-33-39-33-27 0-37-1-37 20 0 17 17 15 30 15 5 0 1 4 1 15 0 10 7 16 1 17-44 1-69 0-69-54 0-50 19-59 80-59 48 0 65 2 85 64 4 12 13 49 19 111 4 40-3 159-9 189z m-84-132c-6 0-11 0-17-1 2 12 7 27 24 27 20-1 23-20 23-32-8 3-19 6-30 6z"/>
<glyph glyph-name="51-yelp" unicode="&#89;" d="M105 261c-7 2-12-2-15-11l-11-39c-18 35-22 43-23 44l0 1c-2 3-8 6-13 4-7-3-10-9-7-17 0-1 30-62 31-63 0 0 0-2 0-2 0 0 1-2 1-2 0-2-1-3-2-4-1-1-3-2-5-2 0 0-5 0-5 0-6 0-9-4-10-9 0-3 1-6 3-8 3-3 7-4 13-4 2 0 5 0 8 1 8 1 13 5 18 21l24 74c1 4 1 8 0 11-2 3-4 4-7 5z m75-6c-7 6-18 8-31 6-16-3-25-14-27-33-3-22 1-39 10-48 6-6 15-9 24-9 3 0 5 0 8 0 20 3 27 14 27 21 0 5-3 9-8 10-3 1-6 0-10-4-6-5-13-7-19-6-4 1-7 4-9 8 0 1 0 2-1 3l0 0c0 1 0 4 1 5l39 0c3 0 6 0 7 2 3 3 3 9 2 20-1 11-6 20-13 25z m-41-29c0 0 0 1 0 3 0 1 1 3 2 5l1 1c2 3 5 5 9 6 5 1 10 0 13-2 3-2 5-6 6-10 0-2 0-3 0-3l-31 0z m94 55l0 1c0 2-3 5-6 6l0 0c-3 1-7 1-11-1-3-2-5-5-5-11l0-94c1-3 1-3 1-4 1-2 3-5 6-6 1-1 3-1 4-1 2 0 4 0 5 1 4 2 7 6 7 11l0 94c0 0-1 4-1 4z m69-19c-9 1-17 0-24-5 0 0-1-1-1-1l-1 0-1 2 0 1c-3 3-9 5-15 2-4-2-5-5-5-11l0-92c0-5 2-9 6-11 2-1 4-1 6-1 1 0 3 0 4 1 3 1 5 3 6 6l1 4 0 16 0 2 0 2 1 0c0 0 1-1 1-1l1-1 2-1c8-4 19-3 28 1 11 6 16 16 18 33 2 33-6 50-27 54z m-1-69c-9 0-13 5-14 18l0 1c0 1 0 4 0 4 0 0 0 4 0 4 1 16 5 20 11 21 5 2 8 1 11-1 4-3 6-11 6-23 0-18-4-24-14-24z m43 2c-6 0-10-5-10-10 0-6 4-10 10-10 5 0 10 4 10 10 0 5-5 10-10 10z m2 33c2-3 4-4 7-4 0-1 0-1 0-1 2 0 4 1 28 9 9 3 11 3 12 4 3 1 5 4 6 8 0 4-2 8-6 9-5 2-7 3-8 3l0 0c-29 12-29 12-31 12-2 0-5-1-6-4-4-4-5-19-4-28 1-4 1-7 2-8z m61 0c-4 2-8 1-10-2 0 0-4-5-5-6l-1-1c-20-24-20-24-21-25 0-2 0-3 0-4 0-1 1-3 2-4 4-5 24-13 32-13 1 0 2 0 2 0 3 1 5 3 6 5 1 2 1 2 1 30 0 0 0 11 0 12 0 3-2 7-6 8z m2 114c-1 3-3 5-6 5-8 2-37-6-43-12-2-2-3-5-2-7 1-2 33-52 36-58 4-5 7-8 11-8 0 0 1 1 2 1 5 1 7 6 6 13 0 12-4 63-4 66z m20-94l-2-2 6 2c1 1 4 1 8 2 31 8 31 8 33 9 2 1 3 4 3 7l0 0 0 0c-1 8-14 27-21 30-2 2-5 1-8 0-1-1-1-1-18-24 0 0-6-9-7-9-2-3-2-7 0-11 2-2 4-3 6-4z m46-25c-1 1-1 1-28 10-4 1-11 3-11 3-4 2-8 0-10-3-3-3-3-7-1-10l4-8c16-26 17-27 18-28 2-1 3-1 5-1 1 0 2 0 3 1 7 2 22 21 23 28 0 3-1 6-3 8z"/>
<glyph glyph-name="52-yelp" unicode="&#90;" d="M208 186c9 2 15 10 16 21 0 10-5 19-14 23-14 5-19 7-20 8l0 0c-73 30-73 30-77 30-7 0-13-3-17-10-8-12-11-48-9-72 1-9 3-15 5-19 4-7 10-11 16-11 1 0 1 0 1 0 4 0 10 2 71 21 21 7 26 9 28 9z m37-18c-10 3-21 1-26-6 0 0-10-12-13-16l-1-1c-51-60-51-60-53-64-1-3-1-6-1-8 1-4 2-8 5-11 11-14 60-32 82-32 1 0 3 0 4 0 8 2 13 6 15 12 2 4 2 5 2 75 0 0 0 29 0 30 1 9-5 17-14 21z m4 283l0 1c-2 7-7 12-15 13-20 5-92-15-107-30-5-5-7-12-5-19 2-4 82-129 91-143 8-13 16-20 25-20 2 0 5 0 7 1 11 4 16 15 15 33-1 29-10 158-11 164z m50-233c10-2 32 5 32 5 75 18 76 19 80 21 5 4 8 10 8 17l0 1 0 0c-2 20-35 68-51 76-7 3-14 3-20-1-3-2-4-4-45-59 0 0-17-23-18-24-6-7-6-17 0-26 3-5 8-9 14-10z m115-64c-3 2-3 2-70 24-11 4-27 9-28 10-9 3-19 0-25-8-7-8-7-18-2-26l11-19c40-64 42-67 45-69 3-3 7-4 11-4 3 0 5 0 8 1 18 7 54 54 57 72 1 8-1 15-7 19z"/>
<glyph glyph-name="53-medium" unicode="&#48;" d="M342 133l134-67c0 0 0 0 1 0 0 0 0 0 0 1l0 286z m-9 316l-95-154 92-149 143 233z m-151-236l125-62-125 202z m-155-73c0-3 2-6 4-7l134-67c0 0 0 0 1 0 0 0 0 0 0 1l0 310-139 70z"/>
<glyph glyph-name="54-slack" unicode="&#49;" d="M476 236c-7 20-29 31-49 24l-41-14-28 83 40 13c20 7 31 29 24 49-7 20-28 31-49 24l-40-13-13 40c-7 20-29 31-49 24-20-7-31-29-24-49l13-40-84-28-13 39c-7 20-29 31-49 24-20-6-31-28-24-48l13-40-40-13c-20-7-31-29-24-49 6-20 28-31 48-25l41 14 27-83-39-13c-20-6-31-28-24-49 7-20 29-31 49-24l39 13 14-42c7-20 29-31 49-24 20 7 31 28 24 49l-14 42 84 28 14-42c7-20 29-31 49-24 20 7 31 29 25 49l-15 42 41 14c21 7 31 28 25 49z m-247-43l-28 83 84 28 28-83z"/>
<glyph glyph-name="55-vine" unicode="&#50;" d="M321 352c0 33 13 51 32 51 17 0 29-16 29-47 0-18-5-38-9-50 0 0 17-30 65-21 10 22 15 51 15 77 0 68-34 108-98 108-66 0-104-51-104-117 0-66 31-123 81-148-21-43-48-81-76-109-52 62-98 145-117 307l-76 0c35-270 139-355 167-372 15-9 29-9 43-1 23 13 90 80 127 159 16 0 35 2 53 6l0 53c-11-2-22-4-32-4-56 0-100 40-100 108z"/>
<glyph glyph-name="56-edge" unicode="&#51;" d="M215 360c-17-20-26-42-29-67 51 0 101 0 152 0 0 4 0 7 0 11-1 17-5 32-14 46-12 19-30 29-51 32-31 5-61 0-90-11-43-15-79-41-107-76-5-6-10-13-15-20 1 4 1 6 1 9 6 41 21 78 48 111 31 37 71 60 120 68 47 7 91 0 133-24 38-22 64-55 80-96 9-23 13-48 14-73 0-16 0-32 0-48 0-2 0-3 0-5-90 0-180 0-270 0 1-22 7-41 22-57 17-19 39-28 63-31 51-8 99 2 144 27 1 1 2 2 3 2 1 0 1 0 1 0 0-1 1-3 1-4 0-27 0-55 0-82 0-3-1-4-4-6-32-16-66-25-102-28-22-1-45-2-68 3-67 14-121 63-134 133-14 80 24 153 100 186 0 0 1 0 2 0z"/>
<glyph glyph-name="57-outlook" unicode="&#52;" d="M350 275l131 89c0 10-9 18-15 18l-150 0 0-88 31-19c0 0 2 0 3 0z m3-33c0 0-5-2-9 0l-28 20 0 0 0-119 142 0c12 0 23 7 23 25l0 160c0 0-133-88-128-86z m-186-37c10 0 17 4 23 12 5 9 8 21 8 36 0 15-3 27-8 36-5 9-13 13-22 13-9 0-17-5-23-13-5-9-8-21-8-36 0-15 3-27 8-35 6-9 13-13 22-13z m-131-121l260-54 0 446-260-50z m89 225c11 15 26 22 44 22 17 0 31-7 41-21 11-14 16-33 16-56 0-23-5-42-16-57-11-14-25-21-43-21-17 0-31 7-42 21-11 14-16 32-16 54 0 24 5 43 16 58z"/>
<glyph glyph-name="58-pencilcase" unicode="&#53;" d="M251 330l-33 0 0-68 30 0c39 0 52 4 52 37 0 26-8 31-49 31z m143 147l-269 0c-49 0-89-40-89-89l0-269c0-49 40-89 89-89l269 0c49 0 89 40 89 89l0 269c0 49-40 89-89 89z m-131-255l-45 0 0-85-48 0 0 233 88 0c49 0 91-5 91-73 0-66-40-75-86-75z"/>
<glyph glyph-name="59-play" unicode="&#54;" d="M353 350l-239 128c-13 7-26 7-38 3l204-204z m90-48l-69 37-78-78 78-78 69 37c32 18 32 64 0 82z m-385 166c-8-8-12-19-12-31l0-352c0-12 4-23 12-31l207 207z m18-427c12-4 25-3 38 3l239 128-73 73z"/>
<glyph glyph-name="60-icloud" unicode="&#55;" d="M404 292c-2 63-54 114-118 114-44 0-82-24-102-61-9 6-20 9-31 9-32 0-59-26-61-57-32-13-55-45-55-82 0-48 40-87 88-87l264 0c46 0 83 37 83 82 0 41-30 75-68 82z"/>
<glyph glyph-name="61-google-inbox" unicode="&#56;" d="M207 352c-2 2-5 2-7 0l-27-27c-1-1-1-2-1-3 0-1 0-3 1-3l80-80c1-1 2-2 3-2 1 0 2 1 3 2l160 159c2 2 2 5 0 7l-27 27c-1 1-2 1-4 1-1 0-2 0-3-1l-129-129z m270-53c0 0 0 0 0 0-2 7-7 13-12 17l-67 48-13-13 69-49 0-1c1 0 2-1 2-2 0 0 1 0 1 0 0-2 0-4-2-5l-404-246c4-2 8-3 13-3l381 0c19 0 34 15 34 34l0 210c0 3-1 6-2 10z m-424 0c1 1 1 2 2 2l190 138c6 4 13 4 19 0l67-49 13 13-70 50c-11 9-27 9-39 0l-191-137c-5-4-9-10-12-17 0 0 0 0 0 0-1-4-2-7-2-10l0-210c0-11 5-20 12-26l208 126z"/>
<glyph glyph-name="62-periscope" unicode="&#57;" d="M255 490c-96 0-174-77-174-174 0-129 139-271 174-271 35 0 174 142 174 271 0 97-78 174-174 174z m0-280c-59 0-106 48-106 106 0 23 8 44 20 62 1-23 20-40 43-40 23 0 42 19 42 42 0 17-9 32-24 39 8 1 16 2 25 2 58 0 105-47 105-105 0-58-47-106-105-106z"/>
<glyph glyph-name="63-blackberry" unicode="&#33;" d="M185 397c0 15-9 34-46 34-16 0-59 0-59 0l-16-77c0 0 31 0 60 0 48 0 61 22 61 43z m158 0c0 15-10 34-47 34-16 0-59 0-59 0l-16-77c0 0 31 0 60 0 48 0 62 22 62 43z m-179-115c0 15-9 33-47 33-15 0-58 0-58 0l-16-77c0 0 31 0 60 0 48 0 61 23 61 44z m157 0c0 15-9 33-46 33-16 0-59 0-59 0l-16-77c0 0 31 0 60 0 48 0 61 23 61 44z m165 47c0 14-9 33-47 33-16 0-58 0-58 0l-17-77c0 0 32 0 61 0 47 0 61 23 61 44z m-23-121c0 15-9 34-47 34-15 0-58 0-58 0l-17-77c0 0 32 0 61 0 48 0 61 23 61 43z m-164-46c0 14-9 33-47 33-16 0-58 0-58 0l-17-77c0 0 32 0 61 0 47 0 61 23 61 44z"/>
<glyph glyph-name="64-viber" unicode="&#34;" d="M102 480c-9-1-18-4-27-8-20-11-35-31-39-54 0-5-1-11-1-160l0-156 2-4c6-31 28-53 59-60l5-1 312 0 5 1c31 7 52 29 59 60l1 4 0 156c0 149 0 155-1 160-1 7-3 14-7 21-11 23-34 38-59 41-6 1-304 1-309 0z m169-79c17-2 30-6 44-13 14-7 24-13 36-25 11-12 17-20 24-34 9-18 14-40 15-65 1-8 0-10-2-12-3-5-11-4-14 1-1 2-1 3-1 10-1 10-1 17-3 25-5 31-20 55-44 73-20 15-40 22-66 23-10 1-11 1-13 3-4 3-4 10 0 13 2 2 3 2 11 2 4 0 10 0 13-1z m-108-5c2 0 4-2 6-3 9-6 34-38 42-54 5-9 6-16 5-21-2-5-4-8-16-17-4-4-8-8-9-9-2-2-3-7-3-10 0-8 5-23 12-34 5-8 14-19 24-28 10-10 20-16 31-22 14-7 22-8 28-5 2 0 4 1 4 2 1 0 4 4 8 9 8 10 10 12 15 13 7 3 14 2 20-1 6-3 17-10 24-15 10-7 31-24 33-27 5-6 6-14 3-23-4-9-17-26-27-33-8-7-15-9-23-9-6-1-9 0-17 3-67 28-120 69-162 125-22 29-39 60-51 92-6 18-7 26-1 35 2 4 12 14 20 20 12 9 18 12 22 13 3 1 8 0 12-1z m112-29c28-4 51-18 65-39 8-13 14-27 15-42 1-6 1-16 0-18 0-2-2-4-4-5-2-1-6-1-8 0-4 2-5 5-5 13 0 12-3 25-8 35-7 12-16 21-27 28-9 6-24 10-36 11-5 0-8 1-9 3-3 3-3 8-1 11 2 4 6 5 18 3z m10-36c9-2 16-6 22-11 8-8 12-17 14-30 2-8 1-11-2-14-3-3-8-3-11 0-2 1-3 3-4 8 0 6-1 11-3 15-4 9-12 14-24 15-6 1-8 2-10 4-3 4-2 11 3 13 2 1 3 1 7 1 2 0 6-1 8-1z"/>
<glyph glyph-name="65-fb-messenger" unicode="&#35;" d="M255 477c-120 0-218-91-218-203 0-64 31-122 81-159l0-78 75 41c20-5 41-8 62-8 121 0 219 91 219 204 0 112-98 203-219 203z m22-274l-56 60-108-60 119 128 57-60 108 60z"/>
<glyph glyph-name="66-wechat" unicode="&#36;" d="M344 327c-41-2-77-14-106-43-29-28-42-63-39-106-16 2-30 4-45 5-5 1-11 0-16-2-14-8-28-17-44-27 3 13 5 25 9 36 2 9 1 13-7 19-49 34-70 86-54 140 14 50 49 80 97 95 66 22 140 0 179-52 15-19 24-40 26-65z m-189 17c0 10-8 19-18 19-11 0-19-8-19-18-1-10 7-19 18-19 10 0 19 8 19 18z m99 19c-11 0-19-9-19-19 0-10 9-18 19-18 11 0 18 8 18 19 0 10-8 18-18 18z m182-292c-13 6-25 15-37 16-13 1-26-6-40-7-40-4-76 7-106 34-56 53-48 133 17 176 58 38 144 25 185-28 36-46 32-107-12-146-13-11-17-20-9-35 1-3 1-6 2-10z m-148 143c8 0 15 7 16 15 0 9-7 16-16 16-8 0-15-7-15-16 0-8 7-15 15-15z m96 31c-8 0-15-6-16-15 0-8 7-15 15-15 9 0 15 6 16 14 0 9-7 16-15 16z"/>
<glyph glyph-name="67-gmail" unicode="&#37;" d="M478 381l0 0 0 0 0 11c0 20-17 36-37 36l0 0 0 0 0 0-375 0 1 0-1 0c-20 0-36-16-36-36l0-251c0-20 16-37 36-37l361 0 0 0c38 1 50 10 51 37z m-64 38l-161-118-159 118z m-325-92l148-102 0 0-149-104z m3-214l153 106 3-1c1-2 3-2 5-2 2 0 8 3 8 3l153-106z m326 8l-149 104 83 57 66 45z"/>
<glyph glyph-name="68-airbnb" unicode="&#38;" d="M452 169c-2 5-5 11-7 16-3 8-7 15-10 22l0 1c-31 66-63 133-98 199l-1 2c-4 7-7 14-11 21-4 8-8 16-15 24-15 18-35 28-56 28-22 0-42-10-57-27-6-8-11-16-16-24-3-7-7-14-10-21l-2-2c-34-66-67-133-97-200l0 0c-4-7-7-15-11-23-2-5-4-10-6-16-6-16-8-31-6-47 5-33 27-61 58-74 11-4 23-7 35-7 4 0 8 1 12 1 14 2 29 7 44 15 18 10 35 25 55 46 19-21 37-36 54-46 15-8 30-13 44-15 4 0 8-1 12-1 12 0 25 3 36 7 30 13 52 41 57 74 3 15 2 30-4 47z m-199-23c-24 30-39 58-44 82-3 10-3 19-2 27 1 7 4 13 7 18 9 12 23 20 39 20 16 0 31-7 39-20 3-5 6-11 7-18 1-8 1-17-1-27-6-24-21-52-45-82z m176-21c-3-23-19-43-40-51-11-5-22-6-34-5-11 2-22 5-33 12-16 8-32 22-50 42 29 36 46 69 53 98 3 13 3 26 2 37-2 11-6 21-12 30-13 20-36 32-62 32-25 0-48-12-62-32-6-9-10-19-12-30-2-11-1-24 2-37 7-29 25-62 54-98-18-20-35-34-51-43-11-6-22-10-33-11-12-2-23 0-34 4-21 9-37 29-40 52-1 11 0 22 4 34 2 5 4 9 6 14 3 7 7 15 10 22l1 1c30 66 63 133 97 198l1 3c3 6 7 13 10 20 4 7 8 14 13 19 9 11 21 17 35 17 14 0 26-6 35-17 5-5 9-12 13-19 3-7 7-14 10-20l1-3c34-66 67-133 97-198l0-1c4-7 7-15 10-22 2-5 5-9 6-14 3-11 5-22 3-34z"/>
<glyph glyph-name="69-angellist" unicode="&#39;" d="M349 290c18-4 31-11 39-23 7-12 11-31 11-57 0-50-15-92-46-124-31-33-70-49-117-49-19 0-37 3-55 10-18 7-33 16-45 28-15 14-26 28-33 43-7 14-11 30-11 45 0 18 4 31 11 40 8 10 19 16 36 20-3 7-6 13-7 18-1 5-2 8-2 11 0 9 5 18 14 28 10 9 19 14 27 14 4 0 8-1 12-2 4-1 8-3 14-7-16 44-27 78-34 102-7 24-11 41-11 50 0 12 3 22 10 30 6 7 15 11 26 11 19 0 43-43 72-127 5-15 9-26 12-34 2 6 5 15 9 27 29 84 54 126 75 126 10 0 19-4 25-11 6-7 9-16 9-28 0-9-3-25-10-49-7-23-17-54-31-92z m-216-124c2-3 6-8 11-15 14-18 26-27 37-27 4 0 8 1 11 3 3 3 4 5 4 8 0 3-2 8-6 15-4 7-10 15-17 24-8 10-14 18-20 22-5 5-9 7-13 7-7 0-13-3-19-11-6-7-9-16-9-27 0-8 2-17 6-27 4-11 10-21 18-31 12-16 27-28 44-37 18-8 38-13 59-13 39 0 72 15 99 44 26 30 40 66 40 111 0 13-1 24-3 32-2 8-6 14-10 17-9 7-25 13-49 19-24 5-48 8-75 8-7 0-12-1-15-4-3-2-4-6-4-12 0-14 7-24 23-30 15-6 40-9 74-9l12 0c3 0 5-1 7-3 2-2 3-6 4-10-4-3-11-7-22-11-10-4-18-8-24-12-12-9-22-20-29-32-8-12-11-24-11-34 0-7 1-15 4-25 4-9 5-15 5-17l0-2-1-3c-8 1-15 6-21 16-5 10-7 23-7 39l0 3c-2-2-3-3-5-3-1-1-3-1-5-1-2 0-3 0-5 0-2 1-4 1-6 2 1-3 2-5 2-7 0-2 0-4 0-5 0-7-3-14-9-19-5-5-12-8-20-8-13 0-26 6-39 18-13 13-20 25-20 37 0 2 0 4 1 6 0 2 1 3 3 4z m90-7c4 0 7 2 10 5 3 3 4 6 4 10 0 4-3 13-8 27-6 14-13 27-21 41-6 10-12 18-18 23-6 5-11 7-17 7-4 0-9-2-14-8-5-5-7-10-7-15 0-4 2-12 7-21 5-10 12-20 20-31 9-12 18-21 26-28 7-7 14-10 18-10z m30 146l-33 95c-8 24-15 39-19 47-5 7-10 11-16 11-4 0-7-2-10-5-2-3-4-8-4-13 0-9 4-26 11-49 7-23 18-53 32-90 1 2 3 4 5 5 2 1 5 1 9 1 1 0 3 0 7 0 4-1 10-1 18-2z m34-92c-8 1-17 2-24 3-8 2-16 4-23 6 3-6 6-13 9-19 2-7 4-13 6-19 5 6 10 11 15 16 6 5 11 10 17 13z m40 82c14 37 25 67 32 91 8 24 11 38 11 44 0 6-1 10-3 13-3 4-6 5-11 5-5 0-11-4-17-14-6-9-12-24-19-45l-31-87z"/>
<glyph glyph-name="70-uber" unicode="&#40;" d="M254 481c-117 0-213-91-221-207l160 0 0 39c0 4 3 7 7 7l106 0c3 0 6-3 6-7l0-106c0-4-3-7-6-7l-106 0c-4 0-7 3-7 7l0 39-160 0c7-116 104-208 221-208 123 0 222 99 222 222 0 122-99 221-222 221z"/>
<glyph glyph-name="71-safari" unicode="&#41;" d="M280 247l89 128-127-91z m-24 239c-123 0-223-100-223-224 0-123 100-223 223-223 124 0 224 100 224 223 0 124-100 224-224 224z m135-95l-107-154c-1 0-1-1-2-1l-152-108c-1-1-2-1-2-1-2 0-3 1-4 1-1 2-1 4 0 6l107 154c1 0 1 1 2 1l152 108c2 1 4 1 6-1 1-1 1-4 0-5z"/>
<glyph glyph-name="72-firefox" unicode="&#42;" d="M450 189c14 26 30 75 17 119 0 1-1 1-1 2 0 1-1 2-1 2l0 0c0 0 0 0 0 1 0-1 0-1 0-1 0-1-3-11-8-27 2 23 1 48-8 71-4 11-9 20-13 28-7 10-13 17-19 21 1 0 1-1 2-1-1 1-2 1-2 1 0 0 1 0 1 0-1 0-1 0-1 0 0 0 0-2 1-7-11 18-27 27-30 28 0 0 0 0 0 0 0 0 1-5 2-16-17 14-38 25-63 32 41-27 56-50 65-70-11 11-29 23-42 24 19-14 50-55 47-117-8 21-19 30-19 30 0-1 0-1 0-1-1 0-1 0-1 0 3-24 4-41 3-53 0-3 0-6 0-9-1-13-4-20-6-28-2 10-5 15-5 15 0 0 0 0 0 0 0 0 0 0 0 0 0 0-1-19-14-47-7-17-15-25-20-26-2-1-4-1-5 0 0 0 0 0 0 0 0 0 0 0 0 0 0 3 1 5 0 7 0 0-4-1-7-5-1-1-2-3-4-4 0 0 3 4 3 4-2-1-4-3-5-5-6-6-12-13-15-11 3 1 5 4 5 7-2-1-8-6-22-8-6-1-30-5-62 11 5 0 12 2 17-1-5 6-18 5-27 7-8 3-19 14-25 20 22-5 45-3 60 5 2 1 4 2 6 4 10 6 23 15 30 16 1 0 2 0 3 0 8-2 13 6 7 13-7 8-22 17-43 12-16-4-29-16-51-8-2 1-3 1-5 2-1 1 5-1 4 0-5 2-13 5-15 7 0 0 4-1 3-1-4 3-7 5-10 8 0 0 0 0 0 0-12 11-10 21-8 26 1 4 4 8 6 10 1 0 1 0 1 0 3-1 5-2 5-2 0 0-1 2-2 3 0 0 0 0 0 0 3 0 9-2 11-4 4-2 5-4 5-4 0 0 1 1 0 3 0 1-1 3-5 5 0 0 0 0 0 0 2-1 4-2 6-3 1 3 3 7 2 13-1 5-1 6-2 7-1 2 0 2 2 1-1 1-1 2-2 3 0 0 0 0 0 0 1 0 1 0 1 0 0 0 0 0 0 0l0 0c7 8 33 20 39 27 1 0 1 1 2 2 0 0 0-1 0-1 3 3 5 5 6 9 2 4 3 13-2 15-4 1-7 1-13 1-6 1-13 1-22 1-14 0-21 12-23 17 0 0 0 0 0 0 0 0 0 0 0 0 4 15 12 27 24 38 1 0-3-1-2 0 1 1 6 4 7 4 2 1-5 3-11 1-6-1-8-2-10-3-1 0-1 0-1 0 1 1 5 3 4 3-6-1-14-6-21-11 0 1 0 2 0 2-3-1-11-7-13-11 0 1 0 1 0 2-2-2-4-4-6-7 0 0 0 0 0 0-7 2-14 3-20 3-12 1-22-1-31-4-4 4-11 11-17 20 0 0 0 0 0 0 0 0 0 0 0 0 0 0 0 0 0 0-1 0-1-1-1-1-3 6-6 16-6 23 0 0 0 0 0 0 0 0 0 0 0 0 0 0-1 0-1 0 0 0 0 0 0 0 0 0-5-3-9-14 0-1-1-2-1-3 0 1 0 2 0 2 0 0 0 0 0 0 0 0 0 0 0 0 0 0 0-1 0-1 0 1 0 1 0 1-1-2-3-4-4-6 0-2 0-3-1-4 0 0 0 1 0 0 0 0 0 0 0 0 0 0 0 0 0 0 0 0 0 0 0 0 0 0 0 0 0 0 0 0 0 1 0 0-2-4-3-8-5-14-1-6-2-13-2-23-1-8-1-14 0-16 0 1 0 1 0 1 0 0 0 0 0 0-5-8-9-14-10-17-7-13-13-33-19-63 0 0 0 0 1 1-1 0-1-1-1-1 0 0 0 0 0 0 0 0 0 0 0 0 0 0 0 0 1 1 0 0 0-1 0-1 0 0 0 1 1 4 0 0 0 1 0 1 2 5 5 11 9 19-5-17-10-42-7-80 0 1 0 1 0 1 0 0 0-1 0-1 0 0 0 1 0 1 0 0 0 0 0 0 0 0 0 0 0-1 0 1 1 3 1 6 0 1 0 1 0 1 1 5 2 10 3 17 2-26 8-57 27-90 15-26 55-86 155-108-1 0-1 0-2 0 1 0 1 0 2 0-5 1-9 3-11 5-1 0-1 0-1 0-4 2-6 4-6 4 0 0 2 0 6-2 0 0 0 0 0 0 12-3 38-10 59-9-1 0-1 0-1 0 0 0 0 0 0 0 0 0 0 0-1 0-2 1-3 1-4 2 0 0-1 0-1 0-3 2-4 4-4 4 0 0 1 0 3 0 0 0 0 0 0 0 14-1 79-1 115 27 9 7 15 14 17 22 0 0 0-1-1-1 0 0 0 1 0 1l0 0 0 0c0 0 0 0 0 0 0 0 1 0 1 0l0 0c0 0 0 0-1 0l0 0c5 2 9 4 13 7 10 7 21 16 31 27 0 0 1 0 1 1 1 1 1 1 2 2 4 5 7 10 9 14 0 0 0 0 0 0 0 0 0 0 0 0 0 0 0 0 0 0 5 9 8 19 9 30 0-3-1-5-2-7 0 0 0 0 0 0 3 9 2 16-1 21z"/>
<glyph glyph-name="73-opera" unicode="&#43;" d="M255 486c-123 0-223-100-223-223 0-119 93-216 212-222 42-2 82 8 118 27-68-20-140 5-186 64l0 0c0 1 0 1 0 1-31 37-43 85-43 136 1 48 17 94 43 125 47 60 119 84 186 64-32 18-69 27-107 28m148-57c-52 34-117 36-172 2 0 0 0 0 0 0 78 24 150-59 150-168 0-108-72-191-150-168 54-34 120-32 172 3l0 0c47 42 74 102 74 165 0 63-27 124-74 166z"/>
<glyph glyph-name="74-bing" unicode="&#44;" d="M116 478l88-31 0-310 124 71-61 29-38 95 195-68 0-100-220-127-88 49z"/>
<glyph glyph-name="75-reddit" unicode="&#45;" d="M477 256c0 29-23 52-52 52-12 0-24-5-33-13-34 21-79 35-129 37l31 104 74-14c0-1 0-1 0-2 1-18 16-32 34-31 18 1 32 17 31 34-1 18-16 32-34 31-12-1-21-7-27-17 0 0 0 0 0 0l-90 17-36-122c-50-2-95-15-129-37-9 8-21 13-33 13-28 0-51-23-51-52 0-17 9-33 23-42-1-5-1-11-1-16 0-74 89-134 199-134 110 0 200 60 200 134 0 5-1 10-2 15 15 9 25 26 25 43z m-317-34c0 17 14 31 31 31 17 0 31-14 31-31 0-18-14-32-31-32-17 0-31 14-31 32z m168-85c-1-1-23-24-74-24-51 0-72 23-73 24-2 3-2 9 1 11 4 3 9 3 12 0 0-1 17-19 60-19 43 0 63 19 63 19 3 3 8 3 11 0 3-3 3-8 0-11z m-6 53c-17 0-31 14-31 32 0 17 14 31 31 31 17 0 31-14 31-31 0-18-14-32-31-32z"/>
<glyph glyph-name="76-producthunt" unicode="&#46;" d="M255 480c-123 0-223-100-223-223 0-122 100-222 223-222 122 0 222 100 222 222 0 123-100 223-222 223z m29-267l-63 0 0-67-44 0 0 223 107 0c43 0 78-35 78-78 0-43-35-78-78-78z m0 111l-63 0 0-67 63 0c19 0 34 15 34 34 0 18-15 33-34 33z"/>
<glyph glyph-name="01-forrst-1" unicode="&#47;" d="M255 466c-123 0-222-99-222-222 0-122 99-221 222-221 122 0 221 99 221 221 0 123-99 222-221 222z m119-338c-2-2-4-3-6-3l-99 0 0 41 46 23-3 7-43-21 0 21 27 13-4 7-23-11 0 29-26 0 0-45-22 16-5-6 27-19 0-55-100 0c-2 0-4 1-5 3-1 2-1 4 0 6l112 259c1 2 4 3 6 3 2 0 5-1 6-3l112-259c1-2 1-4 0-6z"/>
<glyph glyph-name="02-dribbble-1" unicode="&#58;" d="M264 243c2 1 4 2 6 2-4 8-8 16-12 23-70-21-138-19-140-19 0-2 0-3 0-5 0-35 13-67 35-91 0 0 0 0 0 0 0 0 37 67 111 90z m-17 46c-24 43-49 77-51 79-38-18-67-53-76-95 4 0 61-1 127 16z m98 58c-24 22-56 35-90 35-12 0-22-2-33-4 2-3 28-37 52-80 51 19 71 49 71 49z m-123 31c0 0 0 0-1-1 1 1 1 1 1 1z m-52-242l0 0c-1 1-2 2-3 3 2-2 3-3 3-3z m114 141c3-6 6-13 9-20 1-2 2-4 3-7 47 6 94-4 96-4-1 32-12 62-31 86-1-1-23-33-77-55z m-6-55c-81-28-107-85-108-86 24-18 53-29 85-29 19 0 37 4 53 11-2 12-10 54-29 104 0 0-1 0-1 0z m-23 244c-123 0-222-99-222-222 0-122 99-221 222-221 122 0 221 99 221 221 0 123-99 222-221 222z m148-284c-4-10-9-19-15-27-6-9-13-17-20-24-7-7-15-14-24-20-8-5-17-10-27-14-10-5-20-8-30-10-11-2-22-3-32-3-11 0-22 1-33 3-10 2-20 5-30 10-9 4-19 9-27 14-9 6-17 13-24 20-7 7-14 15-20 24-5 8-10 17-14 27-4 10-8 20-10 30-2 11-3 22-3 32 0 11 1 22 3 33 2 10 6 20 10 30 4 10 9 19 14 27 6 9 13 17 20 24 7 7 15 14 24 20 8 5 18 10 27 14 10 5 20 8 30 10 11 2 22 3 33 3 10 0 21-1 32-3 10-2 20-5 30-10 10-4 19-9 27-14 9-6 17-13 24-20 7-7 14-15 20-24 6-8 11-17 15-27 4-10 7-20 9-30 2-11 3-22 3-33 0-10-1-21-3-32-2-10-5-20-9-30z m-98 47c18-50 25-90 26-98 31 21 53 54 59 92-3 1-41 13-85 6z"/>
<glyph glyph-name="03-twitter-1" unicode="&#59;" d="M255 466c-123 0-222-99-222-222 0-122 99-221 222-221 122 0 221 99 221 221 0 123-99 222-221 222z m111-177c0-2 0-5 0-7 0-74-56-159-158-159-32 0-61 9-86 25 5 0 9 0 13 0 27 0 51 8 70 23-25 1-45 17-52 39 3-1 7-1 10-1 5 0 10 1 15 2-26 5-45 28-45 55 0 0 0 0 0 0 8-4 16-6 25-7-15 10-24 28-24 47 0 10 2 20 7 28 28-34 69-56 115-58-1 4-1 8-1 12 0 31 24 56 55 56 16 0 31-7 41-18 13 3 25 8 35 14-4-13-13-24-24-31 11 2 22 5 32 9-8-11-17-21-28-29z"/>
<glyph glyph-name="04-flickr-1" unicode="&#60;" d="M255 466c-123 0-222-99-222-222 0-122 99-221 222-221 122 0 221 99 221 221 0 123-99 222-221 222z m-85-290c-39 0-70 31-70 70 0 38 31 69 70 69 38 0 69-31 69-69 0-39-31-70-69-70z m174 0c-38 0-69 31-69 70 0 38 31 69 69 69 39 0 70-31 70-69 0-39-31-70-70-70z"/>
<glyph glyph-name="05-twitter-1" unicode="&#61;" d="M255 466c-123 0-222-99-222-222 0-122 99-221 222-221 122 0 221 99 221 221 0 123-99 222-221 222z m59-350c-9 0-59 1-72 1-13 0-80 21-80 95 0 13 0 26 0 39-1 13-1 25-1 37 0 4 0 7 0 11 0 18-2 39 4 57 5 14 16 19 29 19 32 0 35-33 35-66l93 0c15 0 26-15 26-38 0-23-24-28-37-28l-83 0c-1-14-1-25-1-32 0-15 6-31 41-31l50 0c13 0 31-9 31-36 0-26-26-28-35-28z"/>
<glyph glyph-name="06-facebook-1" unicode="&#62;" d="M255 466c-123 0-222-99-222-222 0-122 99-221 222-221 122 0 221 99 221 221 0 123-99 222-221 222z m58-221l-38 0c0-61 0-136 0-136l-57 0c0 0 0 74 0 136l-27 0 0 49 27 0 0 31c0 22 11 57 57 57l42 0 0-47c0 0-25 0-30 0-5 0-12-2-12-13l0-28 43 0z"/>
<glyph glyph-name="07-skype-1" unicode="&#63;" d="M305 245c-6 4-13 7-21 10-9 2-18 5-28 7-8 2-14 3-18 4-3 1-7 3-10 4-3 2-6 4-7 6-2 2-3 4-3 7 0 5 3 9 8 12 5 4 13 6 22 6 9 0 17-2 21-5 4-3 8-8 11-14 3-5 5-8 8-10 2-2 6-3 11-3 5 0 9 1 13 5 3 4 5 8 5 12 0 5-2 10-4 15-3 4-7 9-13 13-5 5-12 8-20 11-9 2-19 4-30 4-14 0-26-2-37-6-11-4-19-10-24-17-6-8-9-16-9-26 0-10 3-18 8-25 6-7 13-12 22-16 9-4 20-7 33-10 10-2 17-4 23-6 6-1 10-4 14-7 3-3 5-7 5-12 0-6-4-11-10-16-6-4-15-6-25-6-8 0-14 1-19 3-4 2-8 5-10 8-3 3-5 8-7 13-2 5-5 8-8 11-3 2-7 4-11 4-5 0-10-2-13-5-4-4-5-8-5-12 0-8 2-15 8-23 5-8 12-14 20-19 12-6 27-9 46-9 15 0 28 2 39 7 11 5 20 11 26 19 6 9 9 18 9 29 0 8-2 16-6 22-3 6-8 11-14 15z m-50 221c-123 0-222-99-222-222 0-122 99-221 222-221 122 0 221 99 221 221 0 123-99 222-221 222z m54-359c-13 0-25 3-35 9-7-2-15-3-23-3-70 0-126 57-126 127 0 8 1 17 2 25-6 11-10 24-10 37 0 41 33 73 73 73 15 0 28-4 39-11 7 1 15 2 22 2 70 0 126-56 126-126 0-10-1-19-3-27 5-10 8-21 8-33 0-40-33-73-73-73z"/>
<glyph glyph-name="08-digg-1" unicode="&#64;" d="M128 268l16 0 0-43-16 0z m140 0l16 0 0-42-16 0z m-13 198c-123 0-222-99-222-222 0-122 99-221 222-221 122 0 221 99 221 221 0 123-99 222-221 222z m-81-266l-76 0 0 94 46 0 0 41 30 0z m47 0l-31 0 0 94 31 0z m0 108l-31 0 0 25 31 0z m93-149l-77 0 0 26 47 0 0 15-47 0 0 93 77 0z m93 0l-77 0 0 26 47 0 0 15-47 0 0 93 77 0z m-46 109l16 0 0-42-16 0z"/>
<glyph glyph-name="09-google-1" unicode="&#91;" d="M256 476c-123 0-222-99-222-221 0-122 99-221 222-221 122 0 221 99 221 221 0 122-99 221-221 221z m127-268c-7-22-18-42-35-57-16-15-35-25-56-29-23-6-47-6-70 0-18 5-35 14-50 25-15 13-28 29-37 46-14 27-18 59-12 89 2 12 6 23 12 34 16 32 44 57 77 68 30 11 63 10 93-1 16-6 31-15 44-27-4-5-9-9-13-13-9-9-17-17-26-26-8 8-18 14-29 18-13 4-27 4-40 1-16-3-30-11-41-22-9-9-16-21-20-33-6-17-6-36 0-53 5-17 17-32 31-42 9-6 20-11 31-13 10-2 22-2 32 0 11 2 21 6 31 12 14 9 24 25 27 42-25 0-50 0-75 0 0 18 0 36 0 53 43 0 86 0 129 0 4-24 4-49-3-72z"/>
<glyph glyph-name="10-html5-1" unicode="&#93;" d="M261 209l33 0-3-36-30-8 0 0-31 8-2 23-27 0 3-44 57-15 0 0 56 15 7 84-100 0-2 28 105 0 2 28-137 0 7-83z m-6 257c-123 0-222-99-222-222 0-122 99-221 222-221 122 0 221 99 221 221 0 123-99 222-221 222z m61-69l14 0 0-28 20 0 0-13-34 0 0 41z m-53 0l14 0 9-14 9 14 14 0 0-41-13 0 0 20-10-14 0 0-10 14 0-20-13 0z m-45 0l38 0 0-13-12 0 0-28-14 0 0 28-12 0z m-47 0l14 0 0-13 13 0 0 13 14 0 0-41-14 0 0 14-13 0 0-14-14 0z m179-283l-89-25-90 25-20 223 219 0z"/>
<glyph glyph-name="11-linkedin-1" unicode="&#94;" d="M255 466c-123 0-222-99-222-221 0-123 99-222 222-222 122 0 221 99 221 222 0 122-99 221-221 221z m123-329c0-10-8-18-18-18l-211 0c-10 0-18 8-18 18l0 213c0 10 8 18 18 18l211 0c10 0 18-8 18-18l0-213z m-81 137c-19 0-28-10-33-18l0 0-1 0c1 0 1 0 1 0l0 16-38 0c1-11 0-112 0-112l38 0 0 62c0 4 0 7 1 9 3 7 9 14 19 14 14 0 19-10 19-25l0-60 37 0 0 64c0 34-18 50-43 50z m-110 52c-12 0-21-8-21-19 0-11 8-20 21-20l0 0c13 0 21 9 21 20 0 11-8 19-21 19z m-18-54l37 0 0-112-37 0z"/>
<glyph glyph-name="12-lastfm-1" unicode="&#95;" d="M255 466c-123 0-222-99-222-221 0-123 99-222 222-222 122 0 221 99 221 222 0 122-99 221-221 221z m86-315c-30 0-50 14-63 45l-3 7-29 66c-9 23-33 38-58 38-35 0-64-29-64-64 0-35 29-64 64-64 24 0 45 13 56 35 1 0 1 1 2 1 1 0 2-1 2-2l12-27c0 0 0-1 0-2-18-21-44-34-72-34-52 0-93 42-93 93 0 51 41 93 93 93 38 0 70-21 86-57 0-1 15-37 29-69 8-19 15-30 36-31 21 0 36 12 36 28 0 15-9 19-30 26-36 11-56 23-56 53 0 29 21 48 52 48 20 0 35-9 45-27 1-1 1-1 1-2 0-1-1-1-1-1l-20-10c-1-1-2 0-3 0-6 10-14 14-23 14-13 0-23-9-23-21 0-15 12-19 31-25 3-1 5-1 8-2 30-10 48-22 48-54 0-31-27-55-63-55z"/>
<glyph glyph-name="13-vimeo-1" unicode="&#96;" d="M255 466c-123 0-222-99-222-221 0-123 99-222 222-222 122 0 221 99 221 222 0 122-99 221-221 221z m128-167c-15-83-98-154-122-170-25-16-48 7-56 24-9 19-38 124-45 133-7 9-30-9-30-9l-10 15c0 0 45 53 79 60 36 7 36-56 45-91 8-33 14-53 21-53 8 0 22 19 37 48 16 29 0 54-31 36 12 73 127 90 112 7z"/>
<glyph glyph-name="14-yahoo-1" unicode="&#123;" d="M255 466c-123 0-222-99-222-221 0-123 99-222 222-222 122 0 221 99 221 222 0 122-99 221-221 221z m97-180c-8-2-78-56-82-70-1-4 0-48 1-55 4-1 38 0 44-1l-1-14c-6 1-48 0-72 0-12 0-52-1-64-1l2 13c7 1 34-1 40 6 3 3 2 45 1 52-2 8-63 84-79 97l-42 0 0 19 140 0 0-2c0 0 0 0 0 0l0-3 0-14-42 0c18-28 45-60 57-76l56 50-34 0-4 19 121 0 0-1c0 0 0 0 0 0l-9-12c0 0 0-1 0-1l-4-5-22 0c-3 0-5-1-7-1z m37-141l-11 1-9 1 0 20 12-1 11-1z m2 34l-19 2 0 87c4-1 37-4 40-5z"/>
<glyph glyph-name="15-tumblr-1" unicode="&#124;" d="M255 466c-123 0-222-99-222-221 0-123 99-222 222-222 122 0 221 99 221 222 0 122-99 221-221 221z m77-344c-12-5-23-9-33-12-9-2-20-3-31-3-13 0-20 2-30 5-10 3-18 8-25 14-7 5-12 12-14 18-3 7-4 17-4 30l0 97-38 0 0 40c11 3 23 8 31 15 8 7 14 15 19 24 5 9 8 21 10 35l39 0 0-64 65 0 0-50-65 0 0-71c0-16 0-26 2-30 2-5 6-9 11-12 6-4 13-6 21-6 14 0 28 5 42 14l0-44z"/>
<glyph glyph-name="16-apple-1" unicode="&#125;" d="M255 466c-123 0-222-99-222-221 0-123 99-222 222-222 122 0 221 99 221 222 0 122-99 221-221 221z m12-90c10 12 27 21 41 21 2-16-4-33-14-44-10-12-26-21-41-20-3 16 5 33 14 43z m80-223c-12-17-24-34-43-34-18 0-24 11-46 11-21 0-28-11-45-11-19-1-32 18-44 35-24 34-42 98-18 140 12 21 34 35 58 35 18 0 35-12 46-12 11 0 31 15 53 13 9-1 35-4 51-28-1-1-30-18-30-53 0-42 37-56 37-56 0-1-6-20-19-40z"/>
<glyph glyph-name="17-windows-1" unicode="&#126;" d="M255 466c-123 0-222-99-222-221 0-123 99-222 222-222 122 0 221 99 221 222 0 122-99 221-221 221z m-83-107c19 8 35 11 48 12 0 0 0 0 1 0 7 0 14-1 21-3 13-3 31-14 31-14l0 0c-5-19-21-73-26-92-14 10-29 18-51 18 0 0 0 0 0 0-14 0-30-3-50-11z m-9-192c-14 0-30-3-49-11l26 91c3 1 6 2 8 3 10 3 24 7 39 8 1 1 3 1 5 1 14 0 28-6 38-11 4-2 8-4 12-7-4-12-22-74-27-92-15 10-30 18-52 18z m175-34c-21-9-39-13-53-13-23 0-54 19-54 19l26 91c8-7 27-19 57-19 14 0 30 3 49 10z m32 112c0 0 0 0 0 0 0 0 0 0 0 0-18-9-35-12-50-12-23 0-42 8-56 17 0 0-1 0-1 0l27 92c8-7 27-19 56-19 14 0 31 3 50 12z"/>
<glyph glyph-name="18-youtube-1" unicode="&#92;" d="M160 226l16 0 0-80 16 0 0 80 16 0 0 13-48 0z m95 66c2 0 4 1 5 2 1 1 2 2 2 4l0 42c0 1-1 3-2 4-1 1-3 1-5 1-2 0-3 0-4-1-2-1-2-3-2-4l0-42c0-2 0-3 2-4 1-1 2-2 4-2z m34-76c-2 0-4-1-6-2-2-1-4-2-6-5l0 30-14 0 0-93 14 0 0 6c2-3 4-4 6-5 2-1 4-2 7-2 4 0 7 2 10 4 2 3 3 7 3 11l0 39c0 5-1 10-4 12-2 3-5 5-10 5z m0-54c0-2-1-3-2-4 0-1-2-2-3-2-1 0-3 0-4 1-1 0-2 1-3 2l0 43c1 1 2 2 3 2 1 1 2 1 3 1 2 0 3-1 4-2 1-1 2-3 2-5z m-50 1c-1-2-3-3-4-4-2-1-3-1-4-1-1 0-2 0-3 1 0 1-1 2-1 3l0 53-13 0 0-57c0-5 1-8 2-10 2-2 4-3 7-3 3 0 6 1 8 2 3 2 6 4 8 7l0-8 14 0 0 69-14 0 0-52z m16 303c-123 0-222-99-222-221 0-123 99-222 222-222 122 0 221 99 221 222 0 122-99 221-221 221z m35-110l16 0 0-58c0-1 0-3 1-3 0-1 1-2 3-2 1 0 3 1 4 2 2 1 4 2 5 4l0 57 15 0 0-75-15 0 0 8c-3-3-6-5-9-7-3-1-6-2-9-2-3 0-6 1-8 3-2 2-3 6-3 10z m-57-17c0 6 2 11 6 14 4 4 10 5 17 5 6 0 12-1 16-5 4-4 6-9 6-14l0-39c0-7-2-12-6-16-4-3-10-5-17-5-6 0-12 2-16 6-4 3-6 9-6 15l0 39z m-42 44l11-41 1 0 11 41 18 0-21-60 0-42-17 0 0 40-21 62z m202-216c0-27-22-49-49-49l-173 0c-27 0-49 22-49 49l0 40c0 28 22 50 49 50l173 0c27 0 49-22 49-50z m-62 50c-6 0-11-2-15-6-4-4-6-9-6-14l0-31c0-7 2-12 5-16 4-4 9-6 15-6 7 0 12 2 15 6 4 3 5 9 5 16l0 3-14 0 0-3c0-4 0-7-1-8-1-1-3-2-5-2-2 0-4 1-5 3 0 1-1 3-1 7l0 13 26 0 0 18c0 6-1 11-5 15-3 3-8 5-14 5z m5-27l-12 0 0 7c0 3 1 5 1 6 1 1 3 2 5 2 2 0 4-1 5-2 1-1 1-3 1-6l0-7z"/>
<glyph glyph-name="19-delicious-1" unicode="&#57344;" d="M143 358l109 0 0-109-109 0z m109-109l109 0 0-110-109 0z m3 217c-123 0-222-99-222-221 0-123 99-222 222-222 122 0 221 99 221 222 0 122-99 221-221 221z m116-332c0-2-2-5-5-5l-228 0c-3 0-5 3-5 5l0 229c0 3 2 5 5 5l228 0c3 0 5-2 5-5l0-229z"/>
<glyph glyph-name="20-rss-1" unicode="&#57345;" d="M255 466c-123 0-222-99-222-221 0-123 99-222 222-222 122 0 221 99 221 222 0 122-99 221-221 221z m-69-321c-16 0-29 13-29 29 0 16 13 29 29 29 16 0 29-13 29-29 0-16-13-29-29-29z m73 0c0 27-11 53-30 72-19 19-45 30-72 30l0 42c79 0 144-65 144-144z m74-1c0 98-79 178-176 178l0 42c120 0 218-99 218-220z"/>
<glyph glyph-name="21-picasa-1" unicode="&#57346;" d="M255 466c-123 0-222-99-222-222 0-122 99-221 222-221 122 0 221 99 221 221 0 123-99 222-221 222z m0-64c22 0 43-5 63-14 0-2 0-96 0-103-5 5-113 103-117 107 17 6 35 10 54 10z m-155-155c0 58 32 111 84 138 2-2 56-51 59-53-3-3-133-121-138-125-3 13-5 27-5 40z m75-132c-29 17-52 44-64 75 2 1 59 53 64 58 0-7 0-127 0-133z m94-22l-29 0c-17 1-33 6-49 13 0 2 0 71 0 74 4 0 197 0 203 0-24-49-72-82-125-87z m132 103c-3 0-63 0-66 0 0 3 0 177 0 183 46-28 74-78 74-132 0-17-3-34-8-51z"/>
<glyph glyph-name="22-deviantart-1" unicode="&#57347;" d="M256 467c-123 0-223-99-223-222 0-123 100-223 223-223 123 0 222 100 222 223 0 123-99 222-222 222z m89-125l-53-104 5-6 48 0 0-73-88 0-9-6-23-48-6-5-52 0 0 54 53 104-4 4-49 0 0 75 89 0 7 6 24 48 6 5 52 0z"/>
<glyph glyph-name="23-whatsapp-1" unicode="&#57348;" d="M267 367c-61 0-110-50-110-111 0-20 6-41 17-58l2-5-11-40 42 11 4-3c17-10 36-15 56-15l0 0c61 0 111 49 111 110 0 30-12 58-33 78-21 21-48 33-78 33z m65-158c-3-8-16-15-22-16-6-1-13-1-21 1-5 2-11 4-19 7-33 15-55 48-57 51-1 2-13 18-13 34 0 16 8 24 11 28 3 3 7 4 9 4 2 0 5 0 7 0 2-1 4 0 7-6 3-7 9-23 10-25 1-1 2-3 1-6-2-2-2-3-4-5-1-2-3-4-5-6-1-2-3-3-1-7 2-3 8-14 18-23 13-11 24-14 27-16 3-2 5-2 7 1 2 2 8 9 11 13 2 3 4 2 7 1 3-1 19-9 23-10 3-2 5-3 6-4 1-2 1-8-2-16z m-70 264c-122 0-221-99-221-221 0-123 99-222 221-222 122 0 222 99 222 222 0 122-100 221-222 221z m5-349c0 0 0 0 0 0l0 0c-22 0-44 5-63 16l-71-19 19 69c-11 20-18 43-18 66 0 74 60 133 133 133 36 0 69-14 94-39 25-25 39-58 39-94 0-73-60-132-133-132z"/>
<glyph glyph-name="24-snapchat-1" unicode="&#57349;" d="M262 473c-122 0-221-99-221-221 0-123 99-222 221-222 122 0 222 99 222 222 0 122-100 221-222 221z m138-294c-2-4-9-9-35-13-2-1-3-3-4-9-1-2-1-4-2-6 0-2-2-3-4-3l0 0c-1 0-3 0-6 1-4 0-9 1-15 1-4 0-8 0-12-1-7-1-14-6-21-11-10-7-21-14-37-14-1 0-1 0-2 0l0 0c0 0-1 0-1 0-17 0-27 7-37 14-7 5-14 10-22 11-4 1-7 1-11 1-7 0-12-1-16-2-2 0-4 0-5 0-2 0-4 0-4 2-1 3-2 5-2 7-1 5-2 8-4 9-26 4-34 9-35 13 0 1-1 1-1 2 0 1 1 3 3 3 40 6 58 47 58 49 0 0 0 0 0 0 3 5 3 9 2 13-3 6-12 9-18 11-1 0-3 1-4 1-11 5-12 10-12 12 1 4 6 7 11 7 1 0 2 0 3-1 5-2 10-3 14-3 6 0 8 2 9 2 0 3-1 6-1 9-1 19-2 42 4 55 17 40 55 44 67 44 0 0 4 0 4 0l1 0c11 0 49-3 67-44 6-13 5-36 3-55l0-1c0-3 0-5 0-8 0 0 2-2 8-2l0 0c4 0 8 1 13 3 1 1 3 1 4 1 2 0 4 0 5-1l0 0c4-1 7-4 7-7 0-3-2-7-13-11-1 0-2-1-4-1-5-2-14-5-17-11-2-4-1-8 1-13 0 0 0 0 0 0 1-2 19-43 59-49 1 0 2-2 2-3 0-1 0-1 0-2z"/>
<glyph glyph-name="25-blogger-1" unicode="&#57350;" d="M304 220l-84 0c-8 0-14-7-14-15 0-7 6-14 14-14l84 0c8 0 15 7 15 14 0 8-7 15-15 15z m-84 57l42 0c7 0 14 6 14 14 0 8-7 14-14 14l-42 0c-8 0-14-6-14-14 0-8 6-14 14-14z m35 189c-123 0-222-99-222-222 0-122 99-221 222-221 122 0 221 99 221 221 0 123-99 222-221 222z m125-262c0-41-34-74-75-74l-86 0c-41 0-75 33-75 74l0 88c0 41 34 75 75 75l52 0c20-3 48-19 58-41 3-6 5-7 7-26 1-9 2-16 6-20 6-5 28-2 32-5l4-3 2-4 0-3z"/>
<glyph glyph-name="26-wordpress-1" unicode="&#57351;" d="M255 466c-123 0-222-99-222-222 0-122 99-221 222-221 122 0 221 99 221 221 0 123-99 222-221 222z m-160-221c0 23 5 45 14 65l76-209c-53 26-90 81-90 144z m160-160c-16 0-31 3-45 7l47 139 49-134c1-1 1-2 2-3-17-5-35-9-53-9z m22 235c9 0 18 1 18 1 8 1 7 14-1 13 0 0-26-2-43-2-15 0-42 2-42 2-8 1-9-12-1-13 0 0 8-1 17-1l25-68-35-105-58 173c10 0 18 1 18 1 9 1 8 14-1 13 0 0-26-2-42-2-3 0-7 0-11 0 29 44 78 72 134 72 41 0 79-15 107-41 0 0-1 0-2 0-15 0-26-14-26-29 0-13 7-24 15-37 6-11 13-24 13-44 0-14-4-31-12-52l-16-53z m58-213l49 141c9 23 12 41 12 57 0 6-1 11-1 16 12-22 19-48 19-76 0-59-32-110-79-138z"/>
<glyph glyph-name="27-amazon-1" unicode="&#57352;" d="M255 466c-123 0-222-99-222-221 0-123 99-222 222-222 122 0 221 99 221 222 0 122-99 221-221 221z m19-126c-4 6-12 9-19 9l-3 0c-12-1-23-8-26-21 0-3-2-6-6-7l-33 4c-3 1-6 3-5 7 7 38 40 52 70 53l8 0c16 0 38-4 52-17 17-16 15-37 15-60l0-54c0-16 6-23 13-32 2-3 3-6 0-9-7-6-20-16-27-22-2-2-5-2-8-1-12 10-14 14-20 23-12-12-21-19-33-22-7-2-15-3-24-3-29 0-52 18-52 53 0 28 15 48 37 57 12 5 25 7 39 9 9 1 18 2 26 3l0 4c0 9 1 18-4 26z m91-190c-3-3-7-5-11-7l0 0c-28-18-65-29-98-30-1 0-2 0-3 0-50 0-88 28-123 58-2 1-3 3-3 5 0 2 1 4 2 5 1 1 3 2 5 2 1 0 2-1 4-1 37-21 73-41 118-41 1 0 2 0 3 0 28 0 59 7 88 19l0 0 3 1 2 1c1 1 3 1 4 2 2 0 3 1 4 1 5 0 9-3 9-8 0-3-2-5-4-7z m17-12c-2-1-3-2-5-2l0 0c-2 0-3 0-4 2-2 1-2 2-2 4 0 1 0 2 0 2 2 4 4 9 5 14 2 6 3 11 3 14 0 1 0 1 0 1 0 0 0 0 0 0 0 1-1 1-2 1-1 0-3 0-6 0-3 0-7 0-11 0-4-1-8-1-11-2l0 0 0 0c0 0-1 0-1 0-1 0-3 0-4 1-1 1-2 3-2 5 0 2 2 4 3 6 3 2 6 4 10 5l0 0 3 1 0 0 5 2 0 0c5 1 11 1 15 1 7 0 12-1 16-2 1-1 2-1 4-2l0-1 0 0c1-2 2-4 2-7l0-1c0-11-5-30-18-42z m-104 144c-9 0-18-1-26-2-14-5-26-14-26-33 0-15 8-25 21-25 2 0 4 0 5 0 8 2 15 8 20 16 7 12 6 23 6 37z"/>
<glyph glyph-name="28-appstore-1" unicode="&#57353;" d="M255 466c-123 0-222-99-222-222 0-122 99-221 222-221 122 0 221 99 221 221 0 123-99 222-221 222z m-148-228l0 40c0 3 3 6 6 6l68 0-29-52-39 0c-3 0-6 3-6 6z m49-83l-23-15c-3-2-5-1-5 3l3 26c1 4 4 5 7 4l17-11c4-1 4-5 1-7z m14 18c-2-4-6-5-9-3l-17 10c-4 2-5 6-3 9l25 43 29 52 27 46c2 3 6 5 9 3l18-10c3-2 4-6 2-9l-24-43-22-39z m49 59l29 52 27 0c10-24 18-40 24-52z m104-17c-7 4-42 84-51 105-9 21-36 77-27 81 6 3 29-41 45-67 10-15 25-44 38-67 0 0 0-1 0-1 1-1 1-2 2-3 0 0 0-1 0-1 1-1 1-2 2-3 0 0 0-1 0-1 1-1 1-1 1-2 1-1 1-2 2-2 0-1 0-1 0-1 5-10 9-18 11-21 0 0 0 0 0 0 4-8-4-15-9-17-4-2-7-3-14 0z m23-37l-11 17c-2 3-1 7 3 9l10 5c3 2 8 1 10-3l8-16c2-3 1-8-3-10l-7-4c-3-2-8-1-10 2z m43-48c-3 7-19 8-27 19-7 10-1 16 1 18 31 17 26-37 26-37z m8 108c0-3-2-6-6-6l-32 0c-1 2-1 4-2 5-1 2-4 7-7 13-4 8-11 21-18 34l59 0c4 0 6-3 6-6l0-40z"/>
<glyph glyph-name="29-paypal-1" unicode="&#57354;" d="M350 293c-9-45-46-74-94-74l-24 0-10-47-3-14-33 0-5-23 54 0 13 61 39 0c38 0 69 22 77 60 5 22-1 38-12 48 0-4-1-7-2-11z m-146-117l13 61 39 0c1 0 1 0 2 0 22 0 42 8 56 23 9 10 16 22 19 37 1 6 2 12 1 18 0 7-2 14-5 20-9 16-28 24-46 24l-92 0-41-183z m32 142l1 4 26 0c5 0 9-2 12-4 6-4 9-12 7-21-2-6-5-12-10-16-1-2-3-3-5-4-5-3-11-5-16-5l-26 0z m28-17l0 0 0 1c1 1 1 1 1 2 0 0-1 0-2 0l-12 0-3-14 3 0c5 0 12 5 13 11z m-9 165c-123 0-222-99-222-222 0-122 99-221 222-221 122 0 221 99 221 221 0 123-99 222-221 222z m127-214c-10-45-47-74-95-74l-24 0-10-46-3-15-92 0 5 22 4 19-40 0 5 22 41 183 3 14 107 0c23 0 43-9 56-25 5-6 9-14 12-25 7-4 14-10 19-16 9-11 18-30 12-59z"/>
<glyph glyph-name="30-myspace-1" unicode="&#57355;" d="M255 466c-123 0-222-99-222-222 0-122 99-221 222-221 122 0 221 99 221 221 0 123-99 222-221 222z m151-268l-288 0 0 69 32 0 0-37 224 0 0 37 32 0z"/>
<glyph glyph-name="31-dropbox-1" unicode="&#57356;" d="M258 332l-94-58 94-59 95 59z m-3 134c-123 0-222-99-222-222 0-122 99-221 222-221 122 0 221 99 221 221 0 123-99 222-221 222z m98-320l-95-56-94 56 0 21 29-18 65 54 66-54 29 18z m-29 14l-66 55-65-55-94 62 65 52-65 52 94 61 65-55 66 55 94-61-65-52 65-52z"/>
<glyph glyph-name="32-windows8-1" unicode="&#57357;" d="M255 466c-123 0-222-99-222-222 0-122 99-221 222-221 122 0 221 99 221 221 0 123-99 222-221 222z m-30-327l-101 15 0 82 101 0z m0 111l-101 0 0 82 101 14z m149-132l-136 19 0 99 136 0z m0 132l-136 0 0 98 136 20z"/>
<glyph glyph-name="33-pinterest-1" unicode="&#57358;" d="M255 466c-123 0-222-99-222-222 0-90 55-168 133-202-1 15 0 34 4 51 4 18 28 120 28 120 0 0-7 14-7 35 0 33 19 57 43 57 20 0 30-15 30-33 0-20-13-50-20-78-5-24 12-43 35-43 42 0 70 54 70 118 0 48-33 85-92 85-67 0-109-51-109-106 0-20 6-33 15-44 4-5 4-7 3-12-1-4-4-14-5-18-1-5-6-7-11-5-31 12-45 46-45 84 0 63 53 138 158 138 85 0 140-61 140-126 0-87-48-152-119-152-24 0-47 13-54 28 0 0-13-51-16-61-4-17-14-34-22-48 20-6 41-9 63-9 122 0 221 99 221 221 0 123-99 222-221 222z"/>
<glyph glyph-name="34-soundcloud-1" unicode="&#57359;" d="M255 466c-123 0-222-99-222-222 0-122 99-221 222-221 122 0 221 99 221 221 0 123-99 222-221 222z m-149-252c0 0 0-1-1-1 0 0-1 1-1 1l-2 17 2 18c0 0 1 1 1 1 1 0 1-1 1-1l3-18z m12-10c0-1-1-1-1-1-1 0-2 0-2 1l-3 27 3 28c0 1 1 1 2 1 0 0 1 0 1-1l3-28z m12-4c0-1 0-2-1-2-1 0-2 1-2 2l-3 31 3 33c0 1 1 2 2 2 1 0 1-1 1-2l4-33z m13-1c0-1-1-2-2-2-1 0-2 1-2 2l-2 32 2 34c0 1 1 2 2 2 1 0 2-1 2-2l3-34z m13-1c-1-1-1-2-3-2-1 0-2 1-2 2l-2 33 2 32c0 1 1 2 2 2 2 0 2-1 3-2l2-32z m12 0l0 0c0-1-1-2-2-2-1 0-2 1-2 2l-3 33 3 52c0 1 1 2 2 2 1 0 2-1 2-2l3-52z m13 0l0 0c0-1-1-2-2-2-2 0-3 1-3 2l-2 33 2 63c0 2 1 3 3 3 1 0 2-1 2-3l3-63z m13 1l0 0c0-2-1-3-3-3-1 0-3 1-3 3l-2 32 2 69c0 1 2 2 3 2 2 0 3-1 3-2l2-69z m13 0l0 0 0 0c0-2-1-3-3-3-2 0-3 1-3 3l-2 32 2 71c0 2 1 3 3 3 2 0 3-1 3-3l2-71-2-32c0 0 0 0 0 0z m13 0l0 0c0-2-1-3-3-3-2 0-4 1-4 3l-1 32 1 69c0 2 2 3 4 3 2 0 3-1 3-3l2-69z m13 0l0 1c0-3-1-4-3-4-2 0-4 1-4 3l-1 32 1 67c0 2 2 3 4 3 2 0 3-1 3-3l2-67z m14 1l0 0c0-2-2-4-4-4-2 0-4 2-4 4 0 0-2 31-2 31l2 79c0 2 2 4 4 4 2 0 4-2 4-4l1-79z m13 0l0 0c0-2-2-4-4-4-2 0-4 2-4 4l-2 31 2 86c0 3 2 4 4 4 2 0 4-1 4-4l2-86z m114-4c-1 0-106 0-106 0-2 0-4 2-4 4l0 121c0 3 0 4 3 5 8 3 16 4 25 4 35 0 64-27 67-61 4 2 9 3 15 3 21 0 38-17 38-38 0-21-17-38-38-38z"/>
<glyph glyph-name="35-google-drive-1" unicode="&#57360;" d="M255 466c-123 0-222-99-222-222 0-122 99-221 222-221 122 0 221 99 221 221 0 123-99 222-221 222z m-100-326l-3 4-38 66-1 1 1 2 88 152 2 4 3-4 38-66 1-1-1-1-88-153z m234 60l-37-66-1-1-182 0 2 4 38 66 1 1 182 0z m-2 20l-76-1-1 0-1 2-88 152-2 4 4 0 76 0 2 0 0-1 88-153 3-3z"/>
<glyph glyph-name="36-android-1" unicode="&#57361;" d="M229 344c0-5-4-9-9-9-5 0-9 4-9 9 0 4 4 8 9 8 5 0 9-4 9-8z m26 122c-123 0-222-99-222-222 0-122 99-221 222-221 122 0 221 99 221 221 0 123-99 222-221 222z m-93-258c0-10-8-17-18-17-9 0-17 7-17 17l0 75c0 9 8 17 17 17 10 0 18-8 18-17z m174 77l0-113c0-10-8-18-18-18l-14 0c1-2 1-3 1-5l0-37c0-9-8-17-17-17-10 0-18 8-18 17l0 37c0 2 0 3 1 5l-32 0c0-2 0-3 0-5l0-37c0-9-8-17-17-17-10 0-18 8-18 17l0 37c0 2 1 3 1 5l-13 0c-10 0-19 8-19 18l0 128 163 0 0-15z m-163 27c0 24 17 46 42 58l-4 5-3 4-7 11c-1 2-1 3 1 4 1 1 3 1 4 0l8-12 3-5 3-5c11 4 22 6 35 6 12 0 24-2 34-6l4 5 3 5 8 12c0 1 2 1 4 0 1-1 1-2 0-4l-7-11-3-4-3-5c24-12 41-34 41-58z m209-104c0-10-7-17-17-17-10 0-17 7-17 17l0 75c0 9 7 17 17 17 10 0 17-8 17-17z m-84 136c0-5-4-9-8-9-5 0-9 4-9 9 0 4 4 8 9 8 4 0 8-4 8-8z"/>
<glyph glyph-name="37-behance-1" unicode="&#57362;" d="M342 267c-29 0-33-28-33-28l61 0c0 0 0 28-28 28z m-138-28l-54 0 0-50 48 0c1 0 2 0 3 0 8 1 23 3 23 24 0 26-20 26-20 26z m51 227c-123 0-222-99-222-221 0-122 99-221 222-221 122 0 221 99 221 221 0 122-99 221-221 221z m46-136l76 0 0-22-76 0z m-38-119c0-56-59-54-59-54l-96 0 0 184 96 0c29 0 52-16 52-49 0-33-28-35-28-35 37 0 35-46 35-46z m142 3l-95 0c0-34 32-32 32-32 31 0 30 20 30 20l32 0c0-53-63-49-63-49-76 0-71 70-71 70 0 0 0 71 71 71 75 0 64-80 64-80z m-188 75c0 19-13 19-13 19l-54 0 0-41 51 0c8 0 16 3 16 22z"/>
<glyph glyph-name="38-instagram-1" unicode="&#57363;" d="M292 243c0-22-18-40-40-40-21 0-39 18-39 40 0 21 18 39 39 39 22 0 40-18 40-39z m10 97l-99 0c-14 0-27-5-35-13-8-8-13-21-13-35l0-99c0-14 5-27 14-36 9-8 21-12 35-12l98 0c14 0 27 4 35 12 9 8 13 21 13 35l0 99c0 14-4 26-12 35-9 9-21 14-36 14z m-50-159c-34 0-61 28-61 62 0 34 28 61 61 61 34 0 62-27 62-61 0-35-27-62-62-62z m64 111c-8 0-14 6-14 14 0 8 6 15 14 15 8 0 15-7 15-15 0-8-7-14-15-14z m-62 173c-122 0-221-99-221-221 0-122 99-221 221-221 122 0 221 99 221 221 1 122-99 221-221 221z m118-273c0-20-7-38-20-51-12-13-30-19-50-19l-98 0c-20 0-38 6-50 19-14 13-20 31-20 51l0 99c0 41 28 70 70 70l99 0c20 0 37-7 50-20 13-12 19-29 19-50z"/>
<glyph glyph-name="39-ebay-1" unicode="&#57364;" d="M225 275c-28-1-27-29-27-29 0 0 0-29 27-29 28 0 27 29 27 29 0 0 1 30-27 29z m89-31c0 0-28 1-27-14 1-14 19-14 19-14 31 0 28 28 28 28z m-176 31c-25 0-26-22-26-22l51 0c0 0 0 22-25 22z m124 199c-122 0-221-99-221-221 0-122 99-221 221-221 122 0 222 99 222 221 0 122-100 221-222 221z m73-266l0 11c-7-9-16-14-32-14-17 0-37 7-34 31 1 0 1 0 1 0-5-20-21-31-41-31-23 0-31 13-31 13l-1-10-16 0c0 7 0 18 0 18l0 17c0-1 0-1 0-1l-69 0c0 0 1-25 26-25 19-1 23 13 23 13l18 0c0 0-2-25-41-25-46 0-44 40-44 40 0 8 2 42 45 42 36 0 42-26 42-39l0 69 17 0 0-43c0 0 10 13 31 13 22 0 42-15 42-41 0-3-1-6-1-9 4 18 34 19 43 19 5 0 20 0 20 0 1 11-3 19-20 20-19 0-20-12-20-12l-19 0c4 26 40 23 40 23 37-1 37-22 37-31 0-7 0-18 0-30 0-12 0-18 0-18z m51-29l-20 0 16 29-41 76 21 0 29-59 30 59 18 0z"/>
<glyph glyph-name="40-google-plus-1" unicode="&#57365;" d="M252 475c-122 0-221-99-221-221 0-123 99-222 221-222 122 0 221 99 221 222 0 122-99 221-221 221z m21-280c-23-32-69-41-105-27-36 13-61 51-58 90 0 48 44 89 92 88 22 1 44-9 61-23-7-9-15-17-23-24-21 14-51 18-72 2-30-21-31-70-2-92 28-26 81-13 88 26-17 0-35 0-52 0 0 11 0 21 0 32 29 0 58 0 88 0 1-25-2-51-17-72z m127 45c-9 0-18 0-27 0 0-9 0-17 0-26-9 0-17 0-26 0 0 9 0 17 0 26-9 0-18 0-27 0 0 9 0 18 0 27 9 0 18 0 27 0 0 9 0 17 0 26 9 0 17 0 26 0 0-9 0-17 0-26 9 0 18 0 27 0 0-9 0-18 0-27z"/>
<glyph glyph-name="41-github-1" unicode="&#57366;" d="M260 467c-124 0-224-100-224-223 0-99 64-183 153-213 11-2 15 5 15 11 0 5 0 23 0 42-63-14-76 26-76 26-10 26-25 33-25 33-20 14 2 13 2 13 22-1 34-23 34-23 20-34 53-24 65-18 2 14 8 24 15 30-50 5-102 24-102 110 0 25 8 45 23 60-3 6-10 29 2 60 0 0 19 6 62-23 17 5 37 7 56 7 19 0 38-2 56-7 42 29 61 23 61 23 12-31 5-54 2-60 15-15 23-35 23-60 0-86-52-105-102-110 8-7 15-21 15-42 0-30 0-54 0-61 0-6 4-13 15-11 89 30 153 114 153 213 0 123-100 223-223 223z m-140-321c0-1-2-1-3-1-2 1-3 3-2 4 0 1 2 1 3 0 2 0 3-2 2-3z m10-10c-2-1-4-1-5 1-2 1-2 4-1 5 1 1 3 0 5-2 1-1 2-3 1-4z m8-13c-1-1-3 0-5 2-1 2-1 4 0 5 2 1 4 0 5-2 2-2 2-4 0-5z m12-13c-1-1-3-1-5 1-2 2-3 5-2 6 2 1 4 1 6-1 2-2 3-4 1-6z m17-7c0-2-3-2-5-2-3 1-5 3-4 5 0 2 3 3 5 2 3-1 5-3 4-5z m18-1c1-2-2-3-4-4-3 0-5 2-5 4 0 2 2 3 5 3 2 0 4-1 4-3z m18 3c0-2-2-4-5-4-2-1-5 0-5 2 0 2 2 4 4 4 3 1 5 0 6-2z"/>
<glyph glyph-name="42-stackoverflow-1" unicode="&#57367;" d="M256 466c-123 0-223-100-223-223 0-122 100-222 223-222 123 0 222 100 222 222 0 123-99 223-222 223z m-32-157l96-56-12-21-96 57z m-25-55l107-29-6-22-108 28z m-11-49l110-11-2-23-110 10z m108-41l0-24-111 0 0 24z m38-56c0 0 0-5-1-5l0 0-177 0c0 0-6 0-6 0l0 0 0 115 19 0 0-97 146 0 0 97 19 0z m-10 148l-63 92 20 13 62-92z m23 15l-19 109 24 4 19-109z"/>
<glyph glyph-name="43-spotify-1" unicode="&#57368;" d="M257 466c-122 0-222-100-222-223 0-122 100-222 222-222 123 0 223 100 223 222 0 123-100 223-223 223z m91-328c-4 0-6 2-10 4-32 19-72 30-115 30-24 0-48-4-70-8-4-1-8-2-11-2-8 0-14 6-14 14 0 9 5 14 12 15 28 6 55 10 83 10 49 0 92-11 130-34 5-3 8-6 8-15 0-8-6-14-13-14z m24 59c-5 0-8 2-11 4-37 22-87 36-141 36-29 0-53-4-73-9-4-2-7-3-11-3-9 0-17 8-17 18 0 9 4 16 14 18 25 7 50 12 87 12 58 0 115-14 159-41 7-4 10-9 10-17 0-10-8-18-17-18z m27 69c-4 0-7 1-11 3-40 24-103 38-163 38-30 0-61-3-89-11-3-1-7-3-11-3-12 0-21 10-21 22 0 12 7 19 15 21 32 9 67 14 106 14 65 0 134-14 184-43 7-4 11-10 11-20 0-13-9-21-21-21z"/>
<glyph glyph-name="44-stumbleupon-1" unicode="&#57369;" d="M256 466c-123 0-223-100-223-223 0-122 100-222 223-222 123 0 222 100 222 222 0 123-99 223-222 223z m-3-156c-8 0-15-7-15-15l0-93c-1-35-29-64-65-64-36 0-65 29-65 65 0 1 0 40 0 40l50 0 0-39c0-9 7-16 15-16 9 0 16 7 16 16l0 93c1 35 29 63 64 63 36 0 64-28 65-63l0-20-29-9-20 9 0 18c0 8-7 15-16 15z m146-107c0-36-30-65-65-65-36 0-65 29-65 65l0 40 20-9 29 9 0-41c0-9 7-15 16-15 8 0 15 6 15 15l0 41 50 0c0 0 0-39 0-40z"/>
<glyph glyph-name="45-visa-1" unicode="&#57370;" d="M257 466c-122 0-222-100-222-223 0-122 100-222 222-222 123 0 223 100 223 222 0 123-100 223-223 223z m-118-274l-21 82c-2 5-3 7-7 9-6 4-17 7-26 9l0 3 46 0c6 0 11-4 12-11l11-59 28 70 28 0-43-103z m61 0l22 103 26 0-22-103z m74-2c-12 0-23 3-29 6l4 22c7-3 14-7 28-6 8 0 16 3 16 10 0 4-4 7-14 13-10 4-24 13-23 28 0 20 18 34 45 34 10 0 18-3 25-5l-5-22c-12 6-22 5-26 5-8-1-12-5-12-9 0-12 38-13 38-41 0-21-19-35-47-35z m116 2l-3 15-34 0-6-15-28 0 40 95c2 5 7 8 12 8l23 0 21-103z m-29 36l22 0-8 39z"/>
<glyph glyph-name="46-mastercard-1" unicode="&#57371;" d="M134 225c0-3 2-5 5-5 5 0 9 5 9 13-1 0-2 0-3 0-7 0-11-3-11-8z m110 25c-4 0-7-3-9-9l15 0c0 1 1 9-6 9z m10 214c-123 0-223-100-223-222 0-123 100-223 223-223 123 0 222 100 222 223 0 122-99 222-222 222z m-152-254l8 48-17-48-9 0-2 48-8-48-12 0 10 62 20 0 0-38 13 38 21 0-11-62z m45 0l0 5c-3-4-8-6-14-6-7 0-12 6-12 14 0 12 9 20 23 20 2 0 4-1 6-1 0 2 0 3 0 4 0 3-2 4-8 4-7 0-12-1-14-2 0 1 1 11 1 11 7 2 11 3 16 3 12 0 18-5 18-15 0-3-1-6-1-10-1-7-4-23-4-27-2 0-11 0-11 0z m39 30c6-3 9-7 9-14 0-11-6-17-20-17-9 1-11 1-14 2 0 0 2 11 2 11 4-1 8-2 11-2 6 0 8 2 8 5 0 2-1 3-6 6-7 3-10 7-10 14 0 9 5 17 20 17 3 0 8-1 11-1l-1-12c-4 1-7 1-10 1-4 0-6-1-6-4 0-3 0-3 6-6z m29-18c2 0 3 0 4 0l-2-11c-4-1-7-2-10-2-6 0-10 4-10 11 0 3 1 9 2 14 0 5 5 34 5 34l14 0-2-7 7 0-2-12-7 0c-1-10-3-22-3-24 0-2 1-3 4-3z m31-1c5 0 9 1 14 3l-3-13c-4-1-8-2-13-2-15 0-23 8-23 23 0 17 10 30 24 30 10 0 17-7 17-18 0-4 0-8-1-13l-27 0c0-7 4-10 12-10z m30-11l-14 0 1 4c2 15 5 31 7 47l12 0c0-3 0-5-1-8 4 6 7 9 13 8-2-3-4-8-5-15-7 1-9-5-13-36z m51 1c-5-1-8-2-12-2-14 0-23 11-23 27 0 22 12 38 30 38 5 0 12-3 14-3l-2-14c-5 3-8 4-12 4-10 0-17-10-17-24 0-9 5-15 13-15 3 0 7 1 11 3z m40-1c-1 0-11 0-11 0l1 5c-4-4-8-6-14-6-8 0-12 6-12 14 0 12 8 20 23 20 1 0 3-1 5-1 1 2 1 3 1 4 0 3-2 4-9 4-6 0-12-1-14-2 0 1 2 11 2 11 7 2 11 3 16 3 11 0 17-5 17-15 1-3 0-6-1-10-1-7-3-23-4-27z m18 0l-13 0 0 4c3 15 6 31 7 47l13 0c0-3-1-5-1-8 4 6 7 9 13 8-2-3-4-8-5-15-8 1-9-5-14-36z m40 0l1 5c-4-4-7-6-12-6-10 0-16 9-16 21 0 17 9 31 21 31 5 0 9-2 13-7l3 18 13 0-10-62z m-82 15c0-3 2-5 5-5 6 0 10 5 10 13-2 0-2 0-3 0-8 0-12-3-12-8z m79 24c-6 0-11-7-11-17 0-7 3-10 7-10 6 0 11 7 11 17 0 6-3 10-7 10z"/>
<glyph glyph-name="47-amex-1" unicode="&#57372;" d="M277 294c0 6-2 10-6 12-4 2-9 3-16 3l-28 0 0-53 12 0 0 19 14 0c4 0 7 0 9-2 2-3 2-7 2-10l0-7 12 0 0 10c0 5 0 7-2 10-1 2-3 3-6 4 3 2 9 6 9 14z m-16-7c-2-1-4-1-7-1l-15 0 0 12 16 0c2 0 4 0 6-1 1-1 2-3 2-5 0-2-1-4-2-5z m23 22l13 0 0-53-13 0z m45-12l12 0 0 12-12 0c-9 0-15-2-19-7-5-5-7-12-7-20 0-10 3-16 7-20 4-5 12-6 18-6l15 0 5 12 26 0 4-12 26 0 0 39 24-39 18 0 0 53-13 0 0-37-22 37-19 0 0-50-22 50-18 0-18-42-6 0c-3 0-7 1-9 3-2 3-3 7-3 12 0 6 1 10 4 12 2 3 5 3 9 3z m32 3l8-21-17 0z m-230-27l-17 36-20 0 0-50-22 50-18 0-20-46c0-2 0-4 0-7l11 0 5 12 26 0 5-12 25 0 0 41 19-41 11 0 18 41 0-41 13 0 0 53-21 0z m-77 6l9 21 8-21z m164 19l0 11-42 0 0-53 42 0 0 11-29 0 0 10 28 0 0 11-28 0 0 10z m237-91l20 0c1 4 1 8 2 11l-24 0c-14 0-18-8-18-15 0-17 14-16 26-17 2 0 4 0 4-1 1-1 2-2 2-3 0-2-1-3-2-4-1-1-2-1-5-1l-24 0 0-11 24 0c2 0 3 0 4 0 4 10 7 20 9 30-3 1-6 2-11 2l-7 0c-2 0-3 0-5 0-1 1-2 2-2 4 0 2 0 3 2 4 1 1 2 1 5 1z m4-52l-32 0 0 5c-4-3-11-5-17-5l-103 0 0 17c0 2 0 3-2 3l-2 0 0-20-34 0 0 20c-5-2-12-2-17-2l-4 0 0-18-41 0-10 12-11-12-66 0 0 74 68 0 9-12 11 12 45 0c5 0 14-1 18-5l0 5 40 0c4 0 12-1 17-5l0 5 61 0 0-5c3 3 10 5 15 5l35 0 0-5c3 3 8 5 15 5l24 0 0-3c0 6 0 11 0 17 0 123-99 223-222 223-96 0-178-61-209-147l32 0 4-9 0 9 39 0 8-19 8 19 122 0c6 0 11-1 14-4l0 4 34 0 0-4c5 3 12 4 20 4l49 0 4-9 0 9 36 0 5-9 0 9 35 0 0-73-35 0-7 11 0-11-44 0-5 11-11 0-5-11-22 0c-9 0-16 2-20 4l0-4-55 0 0 16c0 3 0 3-2 3l-2 0 1-19-105 0 0 9-4-9-22 0-4 9 0-9-42 0-5 11-11 0-4-11-19 0c0-1-1-2-1-3 0-122 100-222 223-222 91 0 170 55 204 134 0 0-1 0-1 0z m-128 49c0 6-3 9-7 12-4 2-8 2-15 2l-29 0 0-52 13 0 0 19 13 0c5 0 8-1 9-2 3-3 2-8 2-11l0-6 13 0 0 10c0 5 0 7-2 10-1 1-3 3-6 4 3 1 9 6 9 14z m-17-7c-1-1-3-1-6-1l-15 0 0 11 15 0c3 0 5 0 6-1 2 0 3-2 3-4 0-3-1-4-3-5z m97-20l-24 0 0-11 25 0c12 0 19 5 19 16 0 6-1 9-4 11-2 3-7 5-14 5l-7 0c-2 0-3 0-4 0-2 1-3 2-3 4 0 2 0 3 2 4 1 1 2 1 5 1l23 0 0 11-25 0c-14 0-18-8-18-15 0-17 14-16 26-17 2 0 4 0 4-1 1-1 2-2 2-3 0-2-1-3-1-4-2-1-3-1-6-1z m-158 41l-40 0-16-17-15 17-51 0 0-52 50 0 16 17 15-17 25 0 0 17 16 0c10 0 21 3 21 18 0 15-11 17-21 17z m-78-41l-31 0 0 10 27 0 0 11-27 0 0 9 31 0 14-15z m49-6l-19 21 19 21z m29 23l-16 0 0 13 16 0c5 0 8-1 8-6 0-5-3-7-8-7z m127 13l0 11-42 0 0-52 42 0 0 11-30 0 0 10 29 0 0 11-29 0 0 9z"/>
<glyph glyph-name="48-ios-1" unicode="&#57373;" d="M243 301c-6 1-13 2-20 0-16-4-27-18-31-38-3-14-2-30 2-43 7-20 21-31 39-31 17 0 32 11 39 31 4 13 5 29 2 43-5 20-16 34-31 38z m14 165c-122 0-222-100-222-223 0-122 100-222 222-222 123 0 223 100 223 222 0 123-100 223-223 223z m-111-300l-29 0 0 112 29 0z m-15 128c-8 0-15 7-15 16 0 8 7 15 15 15 9 0 16-7 16-15 0-9-7-16-16-16z m134-121c-7-3-14-5-24-6-6-1-11-1-16 0-10 1-17 3-24 6-26 12-40 38-40 72 0 33 15 60 40 73 10 5 20 7 32 7 12 0 22-2 32-7 25-13 40-40 40-73 0-34-15-60-40-72z m143 21c-7-16-22-25-44-27-4-1-14-1-18-1-12 3-24 4-34 10 0 0 6 23 7 23 16-6 38-13 53-6 9 4 13 12 11 20-1 10-8 16-27 23-21 8-33 18-38 30-3 7-4 15-3 21 3 20 18 33 41 37 7 1 21 1 28 0 10-2 22-5 22-7 0-1-6-21-6-22-10 4-22 7-31 7-13 0-28-8-25-22 1-9 7-13 28-21 15-7 22-11 28-17 9-9 12-19 12-29 0-8-1-12-4-19z"/>
<glyph glyph-name="49-osx-1" unicode="&#57374;" d="M256 465c-123 0-223-99-223-222 0-123 100-222 223-222 123 0 222 99 222 222 0 123-99 222-222 222z m105-353l-26 0-79 112-79-112-27 0 93 131-93 131 27 0 79-112 79 112 26 0-92-131z"/>
<glyph glyph-name="50-evernote-1" unicode="&#57375;" d="M314 268c-12 0-15-9-16-17 3 0 7 0 11 0 8 0 14-2 20-4 0 8-2 21-15 21z m-58 198c-123 0-223-100-223-223 0-122 100-222 223-222 123 0 222 100 222 222 0 123-99 223-222 223z m-124-138l54 53c0 0 0 0 0 0l-1-1c-2-4-3-9-3-14l0-1c0-6 0-29 0-29 0-2-1-3-3-3l-27 0c0 0 0 0 0 0-7 0-12-1-17-4 0 0-2 0-3-1 0 0 0 0 0 0z m239-114c-4-42-10-66-13-74-13-41-24-42-56-42-41 0-53 6-53 38 0 36 17 37 45 36 4 0 0-4 0-11 0-7 3-10-1-10-8 0-20 1-20-10 0-14 7-13 25-13 21 0 26 2 26 22 0 33-10 38-22 39-14 2-28 4-35 6-17 6-15 28-15 35 0 1-2 1-2 0 0-9 0-22-5-35-1-4-2-7-2-7-6-11-15-7-29-6-14 2-44 8-57 14-6 3-8 5-11 12-8 16-16 69-17 76-1 10-1 15-1 15 0 6 0 12 4 17 2 3 4 5 8 6 3 2 7 3 13 3l28 0c6 0 10 5 10 11 0 0 0 6 0 12 0 7 0 14 0 17 0 6 1 10 4 13 3 5 9 8 14 9 7 2 33 4 50-3 6-2 12-10 13-18 10 1 26 1 40-1 17-2 31-5 37-7 7-2 14-8 16-20 4-19 8-98 6-124z"/>
<glyph glyph-name="51-yelp-1" unicode="&#57376;" d="M182 252c-3 2-7 2-11 1-3 0-5-2-7-4l-1-1c-1-2-1-3-1-4-1-1-1-2 0-3l24 0c0 1 0 2 0 3 0 4-2 6-4 8z m107 2c-5-1-7-4-8-17 0 0 0-3 0-3 0 0 0-3 0-4l0 0c0-11 4-15 11-15 8 0 11 5 11 19 0 10-1 16-5 19-2 2-5 2-9 1z m-33 212c-123 0-223-100-223-223 0-122 100-222 223-222 123 0 222 100 222 222 0 123-99 223-222 223z m73-193c2 2 4 3 6 3 1 0 1 0 25-10l0 0c0 0 2-1 6-3 3-1 5-4 5-7-1-3-3-6-5-7-1 0-3 0-10-3-19-6-21-6-22-6 0 0 0 0-1 0-2 0-4 1-5 3 0 1-1 3-1 6-1 8 0 20 2 24z m-189-16l-19-60c-4-12-8-16-15-17-3 0-5-1-7-1-4 0-8 1-10 4-2 1-3 4-2 6 0 5 3 7 8 8 0 0 4 0 4 0 2 0 3 0 4 1 1 1 1 2 1 4 0 0 0 1 0 1 0 0-1 2-1 2 0 0-24 49-24 50-3 7-1 12 5 14 4 2 9-1 10-4l0 0c1-1 5-7 19-35l9 31c3 7 6 10 12 9 3-1 4-2 6-4 1-3 1-6 0-9z m64-28c-2-2-4-2-7-2l-31 0c-1-1 0-3 0-4l0 0c0-1 0-1 1-2 1-3 3-6 7-7 5-1 10 1 15 5 3 3 5 4 8 3 4 0 6-4 6-8 0-5-6-14-22-16-2-1-4-1-5-1-8 0-15 3-20 7-7 8-10 21-8 39 1 15 9 24 22 26 10 2 19 1 25-4 5-4 9-11 10-20 1-9 1-14-1-16z m29-31c-2 0-3-1-4-1-2 0-3 1-4 1-2 1-4 3-5 5 0 0 0 1 0 3l0 76c0 4 1 7 4 9 3 1 6 2 9 0l0 0c2-1 4-2 4-5l0 0c0 0 1-3 1-3l0-76c0-4-2-7-5-9z m81 29c-1-14-5-22-14-26-7-4-16-4-22-1l-2 1-1 0c0 0-1 1-1 1l-1 0 0-1 0-2 0-13 0-3c-1-3-3-4-5-5-1-1-2-1-4-1-1 0-3 0-4 1-3 2-5 4-5 9l0 74c0 5 1 7 4 9 4 2 10 1 12-2l0-1 1-2 1 1c0 0 0 0 0 0 6 5 13 6 20 4 17-3 23-16 21-43z m12-27c-4 0-8 4-8 8 0 5 4 9 8 9 5 0 8-4 8-9 0-4-3-8-8-8z m56 27c0-23 0-23-1-24 0-2-2-3-5-4 0 0 0 0-1 0-7 0-23 6-26 10-1 1-2 3-2 4 0 1 0 2 1 2 0 2 0 2 16 21l1 1c1 1 4 4 4 4 2 3 5 4 8 2 3-1 5-3 5-6 0-1 0-10 0-10z m-5 44c0 0-1 0-2 0-3 0-5 2-8 6-3 5-28 45-29 46-1 3 0 5 2 7 4 4 28 11 34 9 2 0 4-2 5-4l0 0c0-2 3-44 3-53 1-6-1-10-5-11z m13 0c1 0 6 8 6 8 13 18 13 18 15 19 1 1 4 1 6 0 5-3 16-18 16-24l0 0 0-1c0-2-1-4-2-5-1-1-2-1-26-7 0 0-7-2-10-2-2 1-4 2-5 4-2 3-2 6 0 8z m26-61c-1 0-2-1-3-1-1 0-2 1-3 2-2 0-2 1-15 22l-3 6c-2 2-2 6 0 8 2 3 5 4 8 3 0 0 6-2 9-3 22-7 22-7 23-8 2-1 2-4 2-6-1-6-13-21-18-23z"/>
<glyph glyph-name="52-yelp-1" unicode="&#57377;" d="M256 466c-123 0-222-100-222-223 0-122 99-222 222-222 123 0 222 100 222 222 0 123-99 223-222 223z m-103-266c-5 0-9 3-12 8-1 3-2 7-3 14-2 16 0 42 6 50 2 5 7 7 12 7 3 0 3 0 54-21l0 0c1-1 5-2 14-6 6-2 10-9 10-16-1-7-5-13-11-14-1-1-5-2-20-7-43-14-47-15-50-15 0 0 0 0 0 0z m106-27c0-50 0-50-1-53-2-4-6-7-11-8-1 0-2 0-3 0-15 0-50 13-58 22-2 2-3 5-3 8 0 2 0 4 1 5 1 3 1 4 36 46l1 1c3 2 9 10 9 10 4 5 12 7 19 5 6-3 10-9 10-15 0-1 0-21 0-21z m-10 96c-2 0-3 0-5 0-6 0-12 4-18 13-6 10-62 98-64 102-1 5 1 9 4 13 10 10 61 25 75 21 6-1 10-4 11-9l0-1c1-4 7-95 8-115 0-13-3-21-11-24z m28 0c1 1 13 17 13 17 28 39 29 40 31 42 4 2 9 3 14 0 12-5 35-39 36-53l0 0 0-1c0-5-2-9-5-12-3-1-3-2-57-15 0 0-15-4-22-3-4 1-8 3-10 7-4 6-4 13 0 18z m96-83c-2-13-28-46-40-51-2-1-4-1-6-1-3 0-5 1-8 3-2 2-3 3-31 49l-8 13c-4 5-3 13 1 19 5 5 12 7 18 5 0-1 12-4 20-7 47-15 47-15 49-17 4-3 6-8 5-13z"/>
<glyph glyph-name="53-medium-1" unicode="&#57378;" d="M257 475c-122 0-221-99-221-222 0-122 99-221 221-221 122 0 221 99 221 221 0 123-99 222-221 222z m-50-327c0 0 0 0 0 0 0 0 0 0 0 0l-77 38c-1 0-2 2-2 4l0 175 79-40z m10 84l0 79 71-115z m32 46l54 88 80-39-82-134z m136-130c0 0 0 0 0 0 0 0 0 0 0 0l-77 38 77 125z"/>
<glyph glyph-name="54-slack-1" unicode="&#57379;" d="M239 210l-16 48 49 16 16-48z m17 254c-123 0-223-100-223-223 0-122 100-222 223-222 123 0 222 100 222 222 0 123-99 223-222 223z m113-258l-24-8 8-24c4-12-2-25-14-28-12-4-24 2-28 14l-9 24-48-17 8-24c4-12-3-25-14-29-12-3-25 3-29 15l-8 24-23-7c-11-4-24 2-28 14-4 11 2 24 14 28l23 8-16 48-24-8c-11-4-24 2-28 14-4 12 2 24 14 28l23 8-7 23c-4 12 2 24 14 28 11 4 24-2 28-14l8-23 49 17-8 23c-4 12 2 24 14 28 12 4 24-2 28-14l8-23 23 8c12 4 25-2 29-14 4-12-3-25-14-29l-23-7 16-48 23 8c12 4 25-3 29-14 4-12-3-25-14-29z"/>
<glyph glyph-name="55-vine-1" unicode="&#57380;" d="M256 466c-123 0-223-100-223-223 0-122 100-222 223-222 123 0 222 100 222 222 0 123-99 223-222 223z m55-136c-11 0-18-10-18-29 0-39 25-62 57-62 6 0 12 1 19 3l0-31c-11-2-22-3-31-3-21-45-60-84-73-91-8-5-16-5-24 0-16 10-76 59-96 213l43 0c11-92 38-140 67-176 16 17 32 38 44 63-29 14-46 47-46 85 0 38 22 67 59 67 37 0 57-23 57-62 0-15-3-31-9-44-27-5-37 12-37 12 2 7 5 18 5 28 0 18-7 27-17 27z"/>
<glyph glyph-name="56-edge-1" unicode="&#57381;" d="M258 475c-122 0-221-99-221-222 0-122 99-221 221-221 122 0 221 99 221 221 0 123-99 222-221 222z m119-240c-54 0-108 0-162 0 0-13 4-25 13-34 10-11 24-16 38-19 31-4 59 2 86 17 1 0 2 1 2 1 0 0 1 0 1 0 0-1 0-2 0-3 0-16 0-32 0-49 0-1 0-2-2-3-19-10-40-15-61-17-14-1-27-1-41 2-40 8-73 38-80 79-9 48 14 92 60 112 0 0 0 0 1 0-11-12-16-25-18-40 31 0 61 0 91 0 0 2 1 4 0 7 0 9-2 19-8 27-7 12-18 17-31 19-18 3-36 0-54-6-25-10-47-25-64-46-3-4-5-8-9-12 1 2 1 4 1 5 4 25 13 48 29 67 18 23 43 36 72 41 28 4 55 0 79-15 23-13 39-32 48-57 6-14 8-29 9-44 0-10 0-19 0-29 0-1 0-2 0-3z"/>
<glyph glyph-name="57-outlook-1" unicode="&#57382;" d="M207 212c10 0 18 4 25 12 6 8 9 19 9 33 0 13-3 23-9 31-6 8-14 12-24 12-10 0-18-4-25-12-6-9-9-19-9-33 0-13 3-23 9-31 6-8 14-12 24-12z m-12 64c3 5 7 8 13 8 5 0 9-3 12-8 3-5 5-12 5-20 0-9-2-16-5-20-3-5-7-8-13-8-5 0-9 3-12 8-3 5-5 11-5 20 0 8 2 15 5 20z m62 199c-122 0-221-99-221-222 0-122 99-221 221-221 122 0 221 99 221 221 0 123-99 222-221 222z m35-146l86 0c3 0 8-4 8-10l-75-51c0 0-1 0-1 0l-18 11 0 50z m-11-200l-149 31 0 194 149 29z m105 78c0-10-6-14-13-14l-81 0 0 68 0 0 16-11c2-2 5 0 5 0-3-2 73 49 73 49l0-92z"/>
<glyph glyph-name="58-pencilcase-1" unicode="&#57383;" d="M262 473c-122 0-221-99-221-221 0-123 99-222 221-222 122 0 222 99 222 222 0 122-100 221-222 221z m124-298c0-27-22-49-50-49l-148 0c-27 0-49 22-49 49l0 148c0 27 22 49 49 49l148 0c28 0 50-22 50-49z m-124 138l-49 0 0-128 27 0 0 47 24 0c26 0 48 5 48 41 0 38-24 40-50 40z m-6-59l-16 0 0 37 18 0c22 0 27-3 27-17 0-18-8-20-29-20z"/>
<glyph glyph-name="59-play-1" unicode="&#57384;" d="M262 473c-122 0-221-99-221-221 0-123 99-222 221-222 122 0 222 99 222 222 0 122-100 221-222 221z m-64-93l140-74-43-43-118 119c6 2 14 2 21-2z m-39-228l0 204c0 8 2 14 7 19l120-121-120-120c-5 4-7 10-7 18z m39-24c-7-4-15-4-21-2l118 119 43-43z m192 102l-40-21-46 45 46 45 40-21c19-10 19-38 0-48z"/>
<glyph glyph-name="60-icloud-1" unicode="&#57385;" d="M262 473c-122 0-221-99-221-221 0-123 99-222 221-222 122 0 222 99 222 222 0 122-100 221-222 221z m85-300l-166 0c-31 0-56 25-56 55 0 23 15 43 35 51 1 20 18 36 38 36 7 0 14-2 20-5 12 23 36 38 64 38 41 0 73-32 74-72 25-4 43-25 43-51 0-29-23-52-52-52z"/>
<glyph glyph-name="61-google-inbox-1" unicode="&#57386;" d="M262 473c-122 0-221-99-221-221 0-123 99-222 221-222 122 0 222 99 222 222 0 122-100 221-222 221z m76-102c1 0 1-1 2-1l15-15c1-1 1-3 0-4l-90-90c0-1-1-1-2-1 0 0-1 0-2 1l-45 45c0 0 0 1 0 2 0 0 0 1 0 1l16 16c1 1 2 1 3 0l28-28 73 73c1 0 1 1 2 1z m-202-201l0 119c0 2 0 4 1 6 0 0 0 0 0 0 1 4 3 7 6 9l108 78c7 5 16 5 22 0l40-28-7-8-38 28c-4 2-8 2-11 0l-108-78c0 0 0-1-1-1l112-68-118-71c-4 3-6 8-6 14z m253 0c0-10-8-19-19-19l-215 0c-3 0-6 1-8 2l229 139c1 0 1 2 1 3 0 0-1 0-1 0 0 0 0 1-1 1l0 0-39 29 7 7 38-28c3-2 6-5 7-9 0 0 0 0 0 0 1-2 1-4 1-6l0-119z"/>
<glyph glyph-name="62-periscope-1" unicode="&#57387;" d="M326 284c0 35-29 63-64 63-5 0-10-1-14-2 8-4 14-13 14-23 0-14-11-25-25-25-14 0-25 10-26 24-8-11-12-24-12-37 0-35 28-64 63-64 35 0 64 29 64 64z m-64 63c-5 0-10-1-14-2 8-4 14-13 14-23 0-14-11-25-25-25-14 0-25 10-26 24-8-11-12-24-12-37 0-35 28-64 63-64 35 0 64 29 64 64 0 35-29 63-64 63z m0 126c-122 0-221-99-221-221 0-123 99-222 221-222 122 0 222 99 222 222 0 122-100 221-222 221z m0-352c-21 0-104 85-104 163 0 58 47 104 104 104 58 0 105-46 105-104 0-78-84-163-105-163z"/>
<glyph glyph-name="63-blackberry-1" unicode="&#57388;" d="M263 473c-122 0-222-99-222-221 0-123 100-222 222-222 122 0 221 99 221 222 0 122-99 221-221 221z m-95-246c-18 0-38 0-38 0l10 48c0 0 27 0 37 0 24 0 30-11 30-21 0-13-9-27-39-27z m13 73c-18 0-38 0-38 0l11 48c0 0 26 0 36 0 24 0 30-12 30-21 0-13-9-27-39-27z m72-149c-18 0-38 0-38 0l10 49c0 0 27 0 37 0 24 0 29-12 29-21 0-13-8-28-38-28z m14 76c-18 0-38 0-38 0l10 48c0 0 27 0 37 0 24 0 30-11 30-21 0-13-9-27-39-27z m13 73c-18 0-38 0-38 0l11 48c0 0 27 0 36 0 24 0 30-12 30-21 0-13-9-27-39-27z m76-119c-18 0-38 0-38 0l11 48c0 0 27 0 36 0 24 0 30-12 30-21 0-13-9-27-39-27z m15 76c-19 0-39 0-39 0l11 48c0 0 27 0 37 0 23 0 29-12 29-21 0-13-8-27-38-27z"/>
<glyph glyph-name="64-viber-1" unicode="&#57389;" d="M254 472c-122 0-222-99-222-221 0-123 100-222 222-222 122 0 221 99 221 222 0 122-99 221-221 221z m-11-117c2 2 3 2 10 2 3-1 8-1 10-1 13-2 24-5 36-11 11-5 19-11 28-20 10-10 15-17 20-27 7-15 12-33 12-53 1-7 0-8-1-10-3-4-9-3-12 1 0 2 0 3-1 8 0 8-1 14-2 20-4 25-16 45-35 59-16 12-33 18-54 19-7 1-9 1-10 2-3 3-4 8-1 11z m46-49c-8 4-19 8-29 8-4 1-6 1-8 3-2 3-2 6 0 9 2 3 5 3 14 2 23-3 41-14 53-32 7-10 11-21 12-34 1-4 1-13 0-14 0-1-2-3-3-4-2-1-5 0-7 0-3 2-4 4-4 11 0 10-2 20-7 28-5 10-12 17-21 23z m13-52c-2-2-6-2-9 0-2 2-2 3-3 7 0 5-1 9-3 12-3 8-9 11-19 13-5 0-6 1-8 3-3 3-2 8 2 10 2 1 2 1 6 1 2 0 5-1 6-1 8-2 13-4 18-9 7-6 10-13 12-24 1-7 0-9-2-12z m57-100c-3-8-14-21-21-27-7-5-12-7-19-8-5 0-7 0-14 3-54 22-97 56-131 101-18 24-31 48-41 74-5 15-5 21-1 29 2 3 10 11 16 16 10 7 14 10 18 10 3 1 7 1 10 0 1-1 3-2 4-3 8-5 28-30 34-43 4-8 6-13 4-17-1-5-3-7-12-14-4-3-7-6-8-7-1-2-2-6-2-9 0-6 4-18 10-27 4-7 11-16 19-22 9-8 16-14 25-18 11-6 18-7 23-5 1 1 3 1 3 2 1 0 3 4 7 8 6 8 7 9 12 10 5 2 11 2 16-1 4-2 13-8 19-12 8-6 25-19 27-22 4-5 5-11 2-18z"/>
<glyph glyph-name="65-fb-messenger-1" unicode="&#57390;" d="M241 287l-76-81 69 38 35-38 76 81-68-38z m14 185c-123 0-222-99-222-221 0-123 99-222 222-222 122 0 221 99 221 222 0 122-99 221-221 221z m0-350c-13 0-27 2-39 5l-47-25 0 49c-32 23-52 59-52 100 0 71 62 129 138 129 77 0 139-58 139-129 0-71-62-129-139-129z"/>
<glyph glyph-name="66-wechat-1" unicode="&#57391;" d="M271 245c-5 0-10-5-9-10 0-5 4-9 9-9 6 0 10 4 10 9 0 5-4 10-10 10z m-95 74c-7 1-12-4-12-11-1-6 4-12 11-12 6 0 12 5 12 11 0 7-5 12-11 12z m74-23c6 0 11 5 11 12 0 6-5 11-12 11-6 0-11-5-11-11 0-7 5-12 12-12z m82-51c-6 0-10-4-10-9 0-6 4-10 9-10 6 0 10 4 10 9 0 5-4 10-9 10z m-77 232c-122 0-221-99-221-221 0-123 99-222 221-222 123 0 222 99 222 222 0 122-99 221-222 221z m-69-271c-3 0-7 0-9-2-9-5-18-10-28-17 2 9 3 16 5 23 2 6 1 8-4 12-31 22-44 55-34 89 9 31 31 50 61 60 42 13 88 0 113-33 9-12 15-25 17-41-26-2-49-9-67-27-19-18-27-40-25-67-10 1-19 2-29 3z m183-43c-8-7-11-12-6-22 1-2 1-4 2-6-8 4-16 9-24 10-8 1-16-4-25-5-25-2-48 5-67 22-36 33-31 84 11 111 37 24 91 16 117-17 22-29 20-68-8-93z"/>
<glyph glyph-name="67-gmail-1" unicode="&#57392;" d="M264 228l89-62 0 123-39-27z m-9 249c-123 0-222-99-222-221 0-123 99-222 222-222 122 0 221 99 221 222 0 122-99 221-221 221z m104-322l0 0-216 0c-12 0-22 10-22 22l0 150c0 12 10 22 22 22l0 0 0 0 224 0c12 0 22-10 22-22l0-6 0 0 0 0 0-144c-1-16-7-21-30-22z m-104 67c-1 0-3 1-3 1l-2 1-92-63 193 0-92 63c0 0-3-2-4-2z m112 127l0 0 0 0z m-16-5l-192 0 96-71z m-106-116l-89 61 0-123 89 62z"/>
<glyph glyph-name="68-airbnb-1" unicode="&#57393;" d="M255 475c-122 0-221-99-221-221 0-122 99-221 221-221 122 0 221 99 221 221 0 122-99 221-221 221z m123-293c-3-19-16-36-34-44-7-3-14-4-22-4-2 0-4 0-7 0-8 2-17 4-26 9-11 7-21 15-33 28-11-13-22-21-33-28-8-5-17-7-26-9-2 0-5 0-7 0-7 0-15 1-21 4-19 8-32 24-35 44-1 10 0 19 3 29 2 3 3 6 4 9 2 5 5 9 6 14l1 0c18 40 38 80 58 120l1 1c2 4 4 9 6 13 3 5 6 10 10 14 9 10 20 16 34 16 13 0 25-6 33-16 5-5 7-10 10-15 2-4 4-8 6-12l1-2c21-39 40-80 58-119l1-1c2-4 4-8 6-13 1-3 2-6 4-10 3-9 4-19 2-28z m-94 80c-1 4-2 8-4 11-5 7-14 12-24 12-9 0-18-5-23-12-2-3-4-7-4-11-1-5-1-10 1-16 3-14 12-31 26-49 15 18 24 35 27 49 1 6 2 11 1 16z m73-49c-2 4-4 9-6 13l0 1c-19 39-38 79-58 119l-1 1c-2 4-4 8-6 12-3 5-5 8-8 12-5 6-13 10-21 10-8 0-16-4-21-10-3-4-5-7-8-12-2-4-4-8-6-12l-1-1c-20-40-40-80-58-119l0-1c-2-4-4-9-6-13-2-3-3-6-4-8-2-8-3-14-2-21 2-14 11-26 24-31 6-2 13-3 20-3 7 1 13 3 20 7 10 6 19 14 30 26-17 21-28 41-32 59-2 8-2 15-1 22 1 7 3 13 7 18 8 12 22 19 37 19 16 0 30-7 38-19 3-5 6-11 7-18 1-7 0-14-1-22-4-18-15-37-32-59 11-12 20-20 30-26 7-3 13-6 20-6 7-1 14 0 20 2 13 6 22 17 24 31 1 7 0 14-2 21-1 2-2 5-3 8z"/>
<glyph glyph-name="69-angellist-1" unicode="&#57394;" d="M239 292c2 0 4 1 6 1 1 0 2 0 5-1 2 0 6 0 11-1l-21 62c-5 15-10 26-13 30-3 5-6 8-9 8-3 0-5-1-7-4-2-2-3-4-3-8 0-6 3-17 7-31 5-15 12-35 21-59 1 1 2 2 3 3z m24-79c3 3 6 7 10 10 3 3 7 6 11 9-6 0-11 1-16 2-5 1-10 2-15 4 2-5 4-9 6-13 1-4 3-8 4-12z m71 50c-5 4-16 8-31 12-16 3-32 5-49 5-5 0-8-1-10-2-2-2-3-4-3-8 0-9 5-16 15-20 10-4 26-6 48-6l8 0c2 0 4 0 5-2 1-1 2-3 2-6-2-2-7-4-14-7-7-3-12-5-16-8-8-6-14-13-19-21-4-7-7-15-7-22 0-4 1-10 3-16 2-6 3-10 3-11l0-1 0-2c-6 0-10 4-14 10-3 6-5 15-5 25l0 2c-1-1-2-1-3-2-1 0-2 0-3 0-1 0-2 0-3 0-1 0-3 0-4 1 0-2 1-3 1-4 0-2 0-3 0-4 0-4-2-9-6-12-3-4-8-5-13-5-8 0-17 4-25 12-9 8-13 16-13 23 0 2 0 3 0 4 1 1 1 2 2 3 2-2 5-5 8-10 8-12 16-18 24-18 2 0 5 1 6 3 2 1 3 3 3 5 0 2-1 5-4 10-2 4-6 9-10 15-6 7-10 12-13 15-4 3-7 4-9 4-4 0-9-2-12-7-4-5-6-11-6-17 0-6 1-12 4-18 2-7 6-14 11-20 8-11 18-19 29-24 12-6 24-9 38-9 26 0 47 10 65 29 17 19 25 43 25 72 0 8 0 15-1 21-2 5-4 9-7 11z m-120-42c5-8 11-14 16-18 5-4 9-7 12-7 2 0 4 1 6 3 2 3 3 5 3 7 0 3-2 8-5 17-4 10-9 19-14 27-4 7-8 12-12 15-3 4-7 5-10 5-3 0-6-2-9-5-4-3-5-7-5-10 0-3 1-8 4-14 4-6 8-13 14-20z m43 254c-123 0-222-99-222-221 0-122 99-221 222-221 122 0 221 99 221 221 0 122-99 221-221 221z m69-326c-19-21-45-32-76-32-12 0-24 2-35 7-12 4-22 10-30 18-9 9-16 18-21 28-5 9-7 19-7 29 0 11 2 20 7 26 5 7 13 11 23 13-2 5-3 8-4 12-1 3-2 5-2 7 0 6 3 12 10 18 6 6 12 9 17 9 3 0 5 0 8-1 2-1 5-2 9-4-10 28-18 50-22 66-5 15-7 26-7 32 0 8 2 15 6 19 4 5 10 8 17 8 13 0 28-28 47-83 3-9 6-17 8-22 1 4 3 10 6 17 19 55 35 82 49 82 6 0 12-2 16-7 4-4 6-10 6-18 0-5-3-16-7-31-4-16-11-36-20-61 12-2 20-7 25-15 5-7 7-19 7-36 0-33-10-60-30-81z m4 195c5 15 8 25 8 28 0 4-1 7-3 9-1 2-4 3-6 3-4 0-8-3-12-9-4-6-8-16-12-29l-20-57 25-4c9 24 15 43 20 59z"/>
<glyph glyph-name="70-uber-1" unicode="&#57395;" d="M257 475c-123 0-222-99-222-221 0-122 99-221 222-221 122 0 221 99 221 221 0 122-99 221-221 221z m-1-358c-72 0-132 57-136 129l98 0 0-24c0-3 2-4 4-4l66 0c2 0 4 1 4 4l0 65c0 3-2 4-4 4l-66 0c-2 0-4-1-4-4l0-24-98 0c4 72 64 128 136 128 76 0 137-61 137-137 0-75-61-137-137-137z"/>
<glyph glyph-name="71-safari-1" unicode="&#57396;" d="M257 475c-123 0-222-99-222-221 0-122 99-221 222-221 122 0 221 99 221 221 0 122-99 221-221 221z m2-382c-89 0-161 73-161 161 0 89 72 161 161 161 88 0 160-72 160-161 0-88-72-161-160-161z m0 313c-84 0-152-68-152-152 0-83 68-152 152-152 83 0 151 69 151 152 0 84-68 152-151 152z m98-65l0 0-76-107c0-1-1-2-3-3l-105-75c-1 0-3-1-5-1-2 0-4 1-5 2-3 3-3 7-1 10l75 107c1 2 2 2 3 3l106 75c3 2 7 2 10-1 2-2 3-6 1-10z m-183-173l100 71-29 30z"/>
<glyph glyph-name="72-firefox-1" unicode="&#57397;" d="M257 475c-123 0-222-99-222-221 0-122 99-221 222-221 122 0 221 99 221 221 0 122-99 221-221 221z m133-286c0-1 0-1 0-1 1 2 1 3 1 5 0-7-3-14-6-20 0 0 0 0 0 0 0 0 0 0 0 0 0 0 0 0 0 0-1-3-4-7-6-10-1 0-1-1-1-1-1-1-1-1-1-1-7-8-15-14-21-18-3-2-6-4-9-5l0 0 0 0c0 0 0 0 0 0 0 0 0 0 0 0-1-5-5-10-11-15-24-19-69-19-78-19 0 0 0 1 0 1-1 0-2 0-2 0 0 0 0-2 3-3 0 0 0 0 0 0 1 0 2-1 3-1 0 0 1 0 1 0 0 0 0 0 0 0 0 0 0 0 0 0-14-1-32 4-40 6 0 0 0 0 0 0-2 1-4 1-4 1 0 0 2-1 4-3 0 0 1 0 1 0 2-1 4-2 7-3 0 0 0 0-1 0 1 0 1 0 1 0-67 15-94 56-105 73-13 23-17 44-18 61-1-4-2-8-2-11 0 0 0 0 0-1 0-2-1-3-1-4 0 1 0 1 0 1 0 0 0 0 0 0 0 0 0-1 0-1 0 0 0 1 0 1 0 0 0 0 0-1-2 26 1 43 5 54-3-5-5-9-6-12 0-1 0-1 0-1-1-2-1-3-1-3 0 0 0 1 0 1 0-1 0-1 0-1 0 0 0 0 0 0 0 0 0 0 0 0 0 0 0 1 0 1 0-1 0-1 0-1 3 21 8 34 12 43 1 2 3 6 7 11l0 0c0 0 0 0 0 0 0 1 0 5 0 11 0 6 1 11 2 15 1 4 1 7 3 10 0 0 0 0 0 0 0 0 0 0 0 0 0 0 0 0 0 0 0 0 0 0 0 0 0 0 0 0 0 0 0 0 0 0 0 0 0 1 1 1 1 2 0 2 2 4 2 5 0 0 0-1 0-1 0 0 0 0 0 1 0 0 0 0 0-1 0 0 0 1 0 1 0 0 0-1 0-2 1 1 1 1 1 2 2 8 6 10 6 10 0 0 0 0 0 0 0 0 0 0 0 0 0 0 0 0 0 0 0 0 1 0 1 0 0-5 2-12 4-16 0 0 0 1 0 1 0 0 0 0 0 0 0 0 0 0 1 0 0 0 0 0 0 0 3-6 8-11 11-13 6 1 13 2 21 2 4 0 9-1 14-2 0 0 0 0 0 0 1 2 3 3 4 5 0-1 0-1 0-2 1 3 7 7 9 8 0 0 0-1 0-1 4 3 10 6 14 7 1 0-2-1-3-2 0 0 0 0 1 0 1 1 2 1 6 2 4 1 9 0 8-1 0 0-4-2-5-2 0-1 3 0 2 0-9-8-14-16-17-26 0 0 0 0 0-1 0 1 0 1 0 1 2-4 6-12 16-12 6 0 11 0 15 0 4 0 6-1 9-1 3-2 2-8 1-10-1-3-2-4-4-6 0 0 0 0 0 0 0 0-1-1-1-1-4-5-22-13-27-18l0 0c0-1 0-1 0-1 0 0 0 1 0 1 0 0 0 0 0 0 0-1 0-2 1-2-1 0-2 0-1-1 0-1 0-2 1-5 0-4-1-6-1-9-2 1-3 2-4 2 0 0 0 0-1 0 3-1 4-3 4-3 1-2 0-2 0-2 0 0-1 1-3 3-2 1-6 2-8 3 0 0 0 0 0-1 0 0 1-2 1-2 0 0-1 1-3 2 0 0 0-1 0-1-2-1-4-3-5-6-1-4-3-11 5-18 0 0 1 0 1 0 1-2 4-3 7-5 0 0-3 0-2 0 1-1 6-3 9-4 1-1-3 0-2 0 1-1 2-1 3-1 15-6 24 2 35 5 14 3 25-3 29-8 4-5 1-11-5-9 0 0-1 0-2 0-5-1-13-7-20-11-1-1-3-2-4-3-11-5-26-7-41-3 4-4 11-12 17-14 6-1 15-1 19-5-4 3-9 1-12 1 22-11 38-8 42-7 9 1 14 4 15 5 0-2-2-4-3-5 1-1 5 4 10 8 1 1 2 2 3 3 0 0-2-3-2-2 1 0 2 1 3 2 2 3 4 4 4 4 1-1 1-3 1-5 0 0 0 0 0 0 0 0 0 0 0 0 0-1 1-1 3 0 3 1 9 6 14 17 8 19 9 32 9 32 0 0 0 0 0 0 0 0 0 1 0 1 0 0 2-4 4-11 1 6 3 11 3 20 1 1 1 3 1 5 0 9-1 20-2 37 0 0 0-1 0-1 0 1 0 1 0 1 0 0 8-6 13-21 2 43-19 71-32 80 9-1 21-9 29-16-7 14-17 29-45 48 17-5 32-13 43-22-1 7-1 11-1 11 0 0 0 0 0 0 2-1 13-7 21-19-1 3-1 4-1 4 0 0 0 0 0 0 0 0 0 0 0 0l0 0c0 0 0 0 0 0 3-2 8-7 12-14 4-5 7-11 10-19 5-15 6-32 5-49 3 11 5 19 5 19 0 0 0 0 0 0 0 0 0 0 0 0l0 0 0 0 0 0c0 0 1 0 1-2 0 0 0 0 0-1 9-29-1-63-11-81 2-3 3-8 1-13z"/>
<glyph glyph-name="73-opera-1" unicode="&#57398;" d="M257 475c-123 0-222-99-222-221 0-122 99-221 222-221 122 0 221 99 221 221 0 122-99 221-221 221z m-8-368c-79 3-141 68-141 147 0 82 66 148 148 148l0 0c25 0 50-6 71-18-44 13-93-3-123-43-18-21-28-51-29-83 0-34 8-66 29-91 0 0 0 0 0 0l0 0c30-39 78-56 123-42-23-13-51-20-78-18z m106 37l0 0c-35-23-79-24-115-1 52-16 100 39 100 111 0 72-48 128-100 112 0 0 0 0 0 0 36 23 80 21 115-2 31-28 49-68 49-110 0-42-18-82-49-110z"/>
<glyph glyph-name="74-bing-1" unicode="&#57399;" d="M257 475c-123 0-222-99-222-221 0-122 99-221 222-221 122 0 221 99 221 221 0 122-99 221-221 221z m121-284l-154-89-61 35 0 274 61-22 0-217 87 50-43 20-26 67 136-48z"/>
<glyph glyph-name="75-reddit-1" unicode="&#57400;" d="M255 476c-123 0-222-99-222-222 0-122 99-221 222-221 122 0 221 99 221 221 0 123-99 222-221 222z m130-250c1-3 1-6 1-10 0-49-59-88-132-88-72 0-131 39-131 88 0 4 0 7 1 10-10 7-16 17-16 29 0 18 15 33 34 33 8 0 16-2 22-8 22 14 52 23 85 24l24 81 59-11c0 0 0 0 0 0 4 6 10 11 18 11 11 1 22-8 22-20 1-12-8-22-20-23-12 0-22 9-22 21 0 0 0 0 0 1l-50 9-20-69c33-1 63-10 85-24 6 5 14 8 22 8 19 0 34-15 34-33 0-12-6-23-16-29z m-89-43c-1 0-13-12-42-12-28 0-39 11-40 12-2 2-5 2-7 0-2-2-3-5-1-7 1-1 14-16 48-16 34 0 49 15 49 16 2 2 2 5 0 7-2 2-5 2-7 0z m24 49c0-12-9-21-21-21-11 0-21 9-21 21 0 11 10 20 21 20 12 0 21-9 21-20z m-87 0c0-12-9-21-20-21-12 0-21 9-21 21 0 11 9 20 21 20 11 0 20-9 20-20z"/>
<glyph glyph-name="76-producthunt-1" unicode="&#57401;" d="M255 475c-123 0-223-100-223-223 0-122 100-222 223-222 122 0 222 100 222 222 0 123-100 223-222 223z m29-267l-63 0 0-67-44 0 0 223 107 0c43 0 78-35 78-78 0-43-35-78-78-78z m0 111l-63 0 0-67 63 0 0 0c19 0 34 15 34 34 0 18-15 33-34 33z"/>
</font>
</defs>
</svg>
